<svg width="92" height="100" viewBox="0 0 92 100" fill="none" xmlns="http://www.w3.org/2000/svg">
<path d="M0 13.5417C0 6.06283 6.06279 0 13.5417 0H69.7917C77.2704 0 83.3333 6.06279 83.3333 13.5417V64.0779C82.8317 64.4133 82.3554 64.8029 81.9125 65.2458L77.0833 70.075V13.5417C77.0833 9.51458 73.8188 6.25 69.7917 6.25H13.5417C9.51458 6.25 6.25 9.51458 6.25 13.5417V86.4571C6.25 90.4842 9.51458 93.7488 13.5417 93.7488H47.1571L53.4071 99.9988H13.5417C6.06279 99.9988 0 93.9358 0 86.4571V13.5417Z" fill="white"/>
<path d="M27.0833 28.125C27.0833 31.0015 24.7515 33.3333 21.875 33.3333C18.9985 33.3333 16.6667 31.0015 16.6667 28.125C16.6667 25.2485 18.9985 22.9167 21.875 22.9167C24.7515 22.9167 27.0833 25.2485 27.0833 28.125Z" fill="white"/>
<path d="M21.875 55.2075C24.7515 55.2075 27.0833 52.8758 27.0833 49.9992C27.0833 47.1229 24.7515 44.7908 21.875 44.7908C18.9985 44.7908 16.6667 47.1229 16.6667 49.9992C16.6667 52.8758 18.9985 55.2075 21.875 55.2075Z" fill="white"/>
<path d="M21.875 77.0833C24.7515 77.0833 27.0833 74.7517 27.0833 71.875C27.0833 68.9983 24.7515 66.6667 21.875 66.6667C18.9985 66.6667 16.6667 68.9983 16.6667 71.875C16.6667 74.7517 18.9985 77.0833 21.875 77.0833Z" fill="white"/>
<path d="M36.4583 25C34.7325 25 33.3333 26.3991 33.3333 28.125C33.3333 29.8509 34.7325 31.25 36.4583 31.25H63.5417C65.2675 31.25 66.6667 29.8509 66.6667 28.125C66.6667 26.3991 65.2675 25 63.5417 25H36.4583Z" fill="white"/>
<path d="M33.3333 49.9992C33.3333 48.2733 34.7325 46.8742 36.4583 46.8742H63.5417C65.2675 46.8742 66.6667 48.2733 66.6667 49.9992C66.6667 51.725 65.2675 53.1242 63.5417 53.1242H36.4583C34.7325 53.1242 33.3333 51.725 33.3333 49.9992Z" fill="white"/>
<path d="M36.4583 68.75C34.7325 68.75 33.3333 70.1492 33.3333 71.875C33.3333 73.6008 34.7325 75 36.4583 75H63.5417C65.2675 75 66.6667 73.6008 66.6667 71.875C66.6667 70.1492 65.2675 68.75 63.5417 68.75H36.4583Z" fill="white"/>
<path d="M90.7513 74.0846L65.7513 99.0846C65.1654 99.6708 64.3704 100 63.5417 100C62.7129 100 61.9179 99.6708 61.3321 99.0846L48.84 86.5929C47.6196 85.3725 47.6196 83.3938 48.84 82.1733C50.0604 80.9529 52.0392 80.9529 53.2596 82.1733L63.5417 92.4554L86.3321 69.6654C87.5525 68.445 89.5308 68.445 90.7513 69.6654C91.9717 70.8858 91.9717 72.8642 90.7513 74.0846Z" fill="white"/>
</svg>
