<svg width="140" height="100" viewBox="0 0 140 100" fill="none" xmlns="http://www.w3.org/2000/svg">
<path d="M137.087 36.8685C140.942 35.1846 140.942 29.7129 137.087 28.0289L75.7889 1.2111C73.9409 0.400482 71.9674 0 69.9891 0C68.0109 0 66.0374 0.405307 64.1894 1.21592L2.89144 28.0289C-0.963812 29.7177 -0.963812 35.1846 2.89144 36.8685L31.3884 49.3366V65.3559C31.3884 70.8372 34.4861 75.8504 39.3884 78.3016C49.0241 83.117 59.5042 85.5247 69.9891 85.5247C80.4741 85.5247 90.9542 83.117 100.585 78.3016C105.492 75.8504 108.59 70.8372 108.59 65.3559V49.3366L127.89 40.8926V75.8745C125.227 75.8745 123.065 78.0362 123.065 80.6996V95.1749C123.065 97.8384 125.227 100 127.89 100H132.715C135.379 100 137.54 97.8384 137.54 95.1749V80.6996C137.54 78.0362 135.379 75.8745 132.715 75.8745V38.7793L137.087 36.8685ZM103.765 65.3559C103.765 69.0326 101.719 72.3426 98.4282 73.9879C89.6466 78.3788 79.8082 80.6996 69.9891 80.6996C60.1701 80.6996 50.3317 78.3788 41.5501 73.9879C38.2593 72.3426 36.2135 69.0326 36.2135 65.3559V51.4499L64.1894 63.6864C66.0374 64.497 68.0157 64.9023 69.9891 64.9023C71.9674 64.9023 73.9409 64.497 75.7889 63.6864L103.765 51.4451V65.3559ZM73.8589 59.2666C72.6333 59.8022 71.3305 60.0772 69.9891 60.0772C68.6478 60.0772 67.3498 59.807 66.1194 59.2666L4.8263 32.4487L66.1194 5.63088C67.3498 5.09529 68.6478 4.82509 69.9891 4.82509C71.3305 4.82509 72.6285 5.09529 73.8589 5.6357L135.152 32.4487L129.758 34.8082L74.3028 30.3739C73.5211 28.7575 71.8999 27.6236 69.9891 27.6236C67.3257 27.6236 65.1641 29.7853 65.1641 32.4487C65.1641 35.1122 67.3257 37.2738 69.9891 37.2738C71.6152 37.2738 72.9855 36.415 73.8589 35.1797L120.402 38.9047L73.8589 59.2666Z" fill="white"/>
</svg>
