<svg width="104" height="104" viewBox="0 0 104 104" fill="none" xmlns="http://www.w3.org/2000/svg">
<path d="M7.73285 27.7328L6.40703 26.407L6.40702 26.407L7.73285 27.7328ZM96.017 27.7328L94.6911 29.0586L94.6912 29.0587L96.017 27.7328ZM96.017 96.017L94.6912 94.6911L94.6911 94.6912L96.017 96.017ZM7.73285 96.017L9.05869 94.6912L9.05864 94.6911L7.73285 96.017ZM68.946 4.80395L67.6202 6.12979L67.6202 6.1298L68.946 4.80395ZM34.8039 4.80395L36.1298 6.12979L36.1298 6.12976L34.8039 4.80395ZM43.75 70.2085C43.75 69.173 42.9105 68.3335 41.875 68.3335C40.8395 68.3335 40 69.173 40 70.2085H43.75ZM50 81.875C50 82.9105 50.8395 83.75 51.875 83.75C52.9105 83.75 53.75 82.9105 53.75 81.875H50ZM53.75 41.875C53.75 40.8395 52.9105 40 51.875 40C50.8395 40 50 40.8395 50 41.875H53.75ZM60 53.5415C60 54.577 60.8395 55.4165 61.875 55.4165C62.9105 55.4165 63.75 54.577 63.75 53.5415H60ZM3.75 61.875C3.75 52.394 3.75398 45.4718 4.46551 40.1795C5.16979 34.9411 6.5362 31.5812 9.05868 29.0587L6.40702 26.407C3.07165 29.7424 1.50913 34.0256 0.748951 39.6798C-0.00398183 45.2801 0 52.5 0 61.875H3.75ZM9.05867 29.0587C11.5812 26.5362 14.941 25.1698 20.1794 24.4655C25.4717 23.754 32.3939 23.75 41.875 23.75V20C32.4999 20 25.28 19.996 19.6797 20.749C14.0255 21.5091 9.74242 23.0717 6.40703 26.407L9.05867 29.0587ZM41.875 23.75H61.875V20H41.875V23.75ZM61.875 23.75C71.356 23.75 78.2783 23.754 83.5706 24.4655C88.809 25.1698 92.1688 26.5362 94.6911 29.0586L97.3429 26.4071C94.0077 23.0717 89.7245 21.5091 84.0703 20.749C78.47 19.996 71.25 20 61.875 20V23.75ZM94.6912 29.0587C97.2137 31.5812 98.5802 34.9411 99.2845 40.1795C99.996 45.4718 100 52.394 100 61.875H103.75C103.75 52.5 103.754 45.2801 103.001 39.6798C102.241 34.0256 100.678 29.7424 97.3428 26.407L94.6912 29.0587ZM100 61.875C100 71.356 99.996 78.2783 99.2845 83.5706C98.5802 88.809 97.2137 92.1688 94.6912 94.6911L97.3428 97.3429C100.678 94.0077 102.241 89.7245 103.001 84.0703C103.754 78.47 103.75 71.25 103.75 61.875H100ZM94.6911 94.6912C92.1688 97.2137 88.809 98.5802 83.5706 99.2845C78.2783 99.996 71.356 100 61.875 100V103.75C71.25 103.75 78.47 103.754 84.0703 103.001C89.7245 102.241 94.0077 100.678 97.3429 97.3428L94.6911 94.6912ZM61.875 100H41.875V103.75H61.875V100ZM41.875 100C32.3939 100 25.4717 99.996 20.1794 99.2845C14.9411 98.5802 11.5812 97.2137 9.05869 94.6912L6.40701 97.3428C9.7424 100.678 14.0255 102.241 19.6797 103.001C25.28 103.754 32.4999 103.75 41.875 103.75V100ZM9.05864 94.6911C6.5362 92.1688 5.16979 88.809 4.46551 83.5706C3.75398 78.2783 3.75 71.356 3.75 61.875H0C0 71.25 -0.00398183 78.47 0.748951 84.0703C1.50913 89.7245 3.07165 94.0077 6.40706 97.3429L9.05864 94.6911ZM73.75 21.875C73.75 17.214 73.754 13.5295 73.3672 10.6524C72.9731 7.72137 72.1428 5.34899 70.2718 3.4781L67.6202 6.1298C68.6782 7.1878 69.3124 8.63691 69.6506 11.1521C69.996 13.7213 70 17.1079 70 21.875H73.75ZM70.2718 3.47811C68.4009 1.60721 66.0285 0.776912 63.0975 0.382839C60.2204 -0.00398219 56.536 0 51.875 0V3.75C56.642 3.75 60.0286 3.75398 62.5978 4.0994C65.113 4.43756 66.5621 5.07174 67.6202 6.12979L70.2718 3.47811ZM51.875 0C47.214 0 43.5296 -0.00398207 40.6525 0.382838C37.7214 0.77691 35.349 1.60721 33.4781 3.47814L36.1298 6.12976C37.1878 5.07174 38.6369 4.43756 41.1522 4.0994C43.7213 3.75398 47.108 3.75 51.875 3.75V0ZM33.4781 3.47811C31.6072 5.34901 30.7769 7.72138 30.3828 10.6524C29.996 13.5296 30 17.214 30 21.875H33.75C33.75 17.1079 33.754 13.7213 34.0994 11.1521C34.4376 8.63689 35.0717 7.18779 36.1298 6.12979L33.4781 3.47811ZM51.875 80.4165C58.0989 80.4165 63.75 76.1516 63.75 70.2085H60C60 73.4694 56.6971 76.6665 51.875 76.6665V80.4165ZM63.75 70.2085C63.75 64.2649 58.099 60 51.875 60V63.75C56.697 63.75 60 66.9471 60 70.2085H63.75ZM51.875 60C47.053 60 43.75 56.8029 43.75 53.5415H40C40 59.4851 45.651 63.75 51.875 63.75V60ZM43.75 53.5415C43.75 50.2806 47.0529 47.0835 51.875 47.0835V43.3335C45.6511 43.3335 40 47.5984 40 53.5415H43.75ZM51.875 76.6665C47.0529 76.6665 43.75 73.4694 43.75 70.2085H40C40 76.1516 45.6511 80.4165 51.875 80.4165V76.6665ZM50 78.5415V81.875H53.75V78.5415H50ZM50 41.875V45.2085H53.75V41.875H50ZM51.875 47.0835C56.6971 47.0835 60 50.2806 60 53.5415H63.75C63.75 47.5984 58.0989 43.3335 51.875 43.3335V47.0835Z" fill="white"/>
</svg>
