<svg width="100" height="100" viewBox="0 0 100 100" fill="none" xmlns="http://www.w3.org/2000/svg">
<mask id="path-1-inside-1_524_160" fill="white">
<path d="M50 100C77.6142 100 100 77.6142 100 50C100 22.3858 77.6142 0 50 0C22.3858 0 0 22.3858 0 50C0 77.6142 22.3858 100 50 100Z"/>
<path d="M38.6049 56.5789C39.76 58.5789 41.421 60.24 43.421 61.3953C45.421 62.55 47.6905 63.1579 50 63.1579C52.3095 63.1579 54.5789 62.55 56.5789 61.3953C58.5789 60.24 60.24 58.5789 61.3952 56.5789"/>
<path d="M34.2105 28.9474H28.9474C26.0406 28.9474 23.6842 31.3038 23.6842 34.2105C23.6842 37.1173 26.0406 39.4737 28.9474 39.4737H34.2105C37.1173 39.4737 39.4737 37.1173 39.4737 34.2105C39.4737 31.3038 37.1173 28.9474 34.2105 28.9474Z"/>
<path d="M71.0526 28.9474H65.7895C62.8827 28.9474 60.5263 31.3038 60.5263 34.2105C60.5263 37.1173 62.8827 39.4737 65.7895 39.4737H71.0526C73.9594 39.4737 76.3158 37.1173 76.3158 34.2105C76.3158 31.3038 73.9594 28.9474 71.0526 28.9474Z"/>
</mask>
<path d="M40.3368 55.5787C39.7844 54.6222 38.5612 54.2946 37.6047 54.847C36.6482 55.3994 36.3206 56.6227 36.873 57.5792L40.3368 55.5787ZM43.421 61.3953L42.4207 63.1271L42.421 63.1273L43.421 61.3953ZM56.5789 61.3953L57.579 63.1273L57.5793 63.1271L56.5789 61.3953ZM63.1271 57.5793C63.6796 56.6228 63.3521 55.3996 62.3956 54.8471C61.4391 54.2946 60.2159 54.6221 59.6634 55.5786L63.1271 57.5793ZM98 50C98 76.5097 76.5097 98 50 98V102C78.7188 102 102 78.7188 102 50H98ZM50 98C23.4903 98 2 76.5097 2 50H-2C-2 78.7188 21.2812 102 50 102V98ZM2 50C2 23.4903 23.4903 2 50 2V-2C21.2812 -2 -2 21.2812 -2 50H2ZM50 2C76.5097 2 98 23.4903 98 50H102C102 21.2812 78.7188 -2 50 -2V2ZM36.873 57.5792C38.2036 59.883 40.1169 61.7964 42.4207 63.1271L44.4214 59.6634C42.7251 58.6836 41.3164 57.2748 40.3368 55.5787L36.873 57.5792ZM42.421 63.1273C44.7252 64.4577 47.3396 65.1579 50 65.1579V61.1579C48.0415 61.1579 46.1169 60.6424 44.4211 59.6632L42.421 63.1273ZM50 65.1579C52.6604 65.1579 55.2748 64.4577 57.579 63.1273L55.5789 59.6632C53.8831 60.6424 51.9585 61.1579 50 61.1579V65.1579ZM57.5793 63.1271C59.8831 61.7964 61.7964 59.8831 63.1271 57.5793L59.6634 55.5786C58.6836 57.2748 57.2748 58.6836 55.5786 59.6634L57.5793 63.1271ZM28.9474 30.9474H34.2105V26.9474H28.9474V30.9474ZM34.2105 30.9474C36.0127 30.9474 37.4737 32.4083 37.4737 34.2105H41.4737C41.4737 30.1992 38.2219 26.9474 34.2105 26.9474V30.9474ZM37.4737 34.2105C37.4737 36.0127 36.0127 37.4737 34.2105 37.4737V41.4737C38.2219 41.4737 41.4737 38.2219 41.4737 34.2105H37.4737ZM34.2105 37.4737H28.9474V41.4737H34.2105V37.4737ZM28.9474 37.4737C27.1452 37.4737 25.6842 36.0127 25.6842 34.2105H21.6842C21.6842 38.2219 24.936 41.4737 28.9474 41.4737V37.4737ZM25.6842 34.2105C25.6842 32.4083 27.1452 30.9474 28.9474 30.9474V26.9474C24.936 26.9474 21.6842 30.1992 21.6842 34.2105H25.6842ZM65.7895 30.9474H71.0526V26.9474H65.7895V30.9474ZM71.0526 30.9474C72.8548 30.9474 74.3158 32.4083 74.3158 34.2105H78.3158C78.3158 30.1992 75.064 26.9474 71.0526 26.9474V30.9474ZM74.3158 34.2105C74.3158 36.0127 72.8548 37.4737 71.0526 37.4737V41.4737C75.064 41.4737 78.3158 38.2219 78.3158 34.2105H74.3158ZM71.0526 37.4737H65.7895V41.4737H71.0526V37.4737ZM65.7895 37.4737C63.9873 37.4737 62.5263 36.0127 62.5263 34.2105H58.5263C58.5263 38.2219 61.7781 41.4737 65.7895 41.4737V37.4737ZM62.5263 34.2105C62.5263 32.4083 63.9873 30.9474 65.7895 30.9474V26.9474C61.7781 26.9474 58.5263 30.1992 58.5263 34.2105H62.5263Z" fill="white" mask="url(#path-1-inside-1_524_160)"/>
</svg>
