<svg width="90" height="90" viewBox="0 0 90 90" fill="none" xmlns="http://www.w3.org/2000/svg">
<rect x="1" y="1" width="88" height="88" rx="44" stroke="white" stroke-width="2"/>
<path fill-rule="evenodd" clip-rule="evenodd" d="M38.9951 62.9075C39.4731 63.8033 39.9517 64.6106 40.4092 65.3258C35.5485 64.2328 31.3307 61.4408 28.4122 57.6064C30.3384 56.5217 32.8054 55.3972 35.7713 54.5744C36.6142 57.8806 37.8034 60.673 38.9951 62.9075ZM42.6717 60.9467C41.6364 59.0058 40.5989 56.5819 39.8514 53.71C41.4606 53.4711 43.1783 53.3333 45.0003 53.3333C46.8219 53.3333 48.5397 53.4711 50.1486 53.7097C49.4011 56.5819 48.3636 59.0058 47.3283 60.9467C46.4983 62.5031 45.6714 63.7456 45 64.6547C44.3286 63.7456 43.5017 62.5031 42.6717 60.9467ZM38.75 45C38.75 46.6225 38.8592 48.1625 39.0517 49.6164C40.9081 49.3317 42.8928 49.1667 45.0003 49.1667C47.1075 49.1667 49.0922 49.3314 50.9483 49.6164C51.1408 48.1622 51.25 46.6225 51.25 45C51.25 43.3775 51.1408 41.8378 50.9483 40.3836C49.0922 40.6683 47.1075 40.8333 45.0003 40.8333C42.8928 40.8333 40.9081 40.6683 39.0517 40.3836C38.8592 41.8375 38.75 43.3775 38.75 45ZM34.9636 39.5244C34.7216 41.2439 34.5833 43.0706 34.5833 45C34.5833 46.9294 34.7216 48.7561 34.9636 50.4756C31.4261 51.4253 28.4967 52.7644 26.2312 54.0531C24.9083 51.3156 24.1667 48.2444 24.1667 45C24.1667 41.7556 24.9083 38.6846 26.2312 35.9469C28.4964 37.2353 31.4258 38.5746 34.9636 39.5244ZM39.8514 36.2901C41.4606 36.5289 43.1783 36.6667 45.0003 36.6667C46.8219 36.6667 48.5397 36.529 50.1486 36.2902C49.4011 33.4182 48.3636 30.9943 47.3283 29.0533C46.4983 27.4971 45.6714 26.2543 45 25.3453C44.3286 26.2543 43.5017 27.4971 42.6717 29.0533C41.6364 30.9942 40.5989 33.4181 39.8514 36.2901ZM55.0364 39.5247C55.2783 41.2442 55.4167 43.0708 55.4167 45C55.4167 46.9294 55.2783 48.7558 55.0364 50.4753C58.5739 51.4253 61.5033 52.7644 63.7689 54.0531C65.0917 51.3153 65.8333 48.2442 65.8333 45C65.8333 41.7558 65.0917 38.6846 63.7689 35.947C61.5036 37.2355 58.5742 38.5747 55.0364 39.5247ZM61.5878 32.3938C59.6614 33.4786 57.1944 34.6029 54.2289 35.4258C53.3858 32.1196 52.1967 29.3269 51.005 27.0926C50.5269 26.1966 50.0483 25.3896 49.5908 24.6742C54.4517 25.7673 58.6694 28.5593 61.5878 32.3938ZM35.7713 35.4257C32.8056 34.6028 30.3386 33.4785 28.4122 32.3937C31.3307 28.5593 35.5485 25.7673 40.4089 24.6742C39.9517 25.3896 39.4731 26.1966 38.9951 27.0925C37.8034 29.3269 36.6142 32.1195 35.7713 35.4257ZM54.2289 54.5742C53.3858 57.8806 52.1967 60.673 51.005 62.9075C50.5269 63.8033 50.0483 64.6106 49.5908 65.3258C54.4517 64.2328 58.6694 61.4406 61.5881 57.6061C59.6617 56.5214 57.1947 55.3972 54.2289 54.5742ZM45 70C58.8072 70 70 58.8072 70 45C70 31.1929 58.8072 20 45 20C31.1929 20 20 31.1929 20 45C20 58.8072 31.1929 70 45 70Z" fill="white"/>
</svg>
