<svg width="90" height="90" viewBox="0 0 90 90" fill="none" xmlns="http://www.w3.org/2000/svg">
<rect x="1" y="1" width="88" height="88" rx="44" stroke="white" stroke-width="2"/>
<path fill-rule="evenodd" clip-rule="evenodd" d="M44.3377 21.2094C42.6786 20.129 40.6318 19.8122 38.8012 20.1015C36.9728 20.3905 35.0528 21.3418 33.9225 23.1692C33.4845 23.8773 33.2051 24.651 33.0816 25.472C31.3025 25.3528 29.502 25.8924 28.1488 27.0209C26.7785 28.1637 25.9032 29.8735 25.9032 31.9474C25.9032 32.6276 25.9966 33.3253 26.182 34.0376C25.5068 34.1805 24.8567 34.43 24.2485 34.7733C22.2396 35.9074 20.8281 37.9696 20.2707 40.2009C19.7031 42.4732 19.9753 45.1061 21.5921 47.3616C22.4111 48.5043 23.5205 49.4752 24.9143 50.2386C24.5694 50.7002 24.2779 51.198 24.0412 51.7193C23.0738 53.8489 23.001 56.3723 23.74 58.5909C24.4894 60.8411 26.1308 62.9252 28.7187 63.9214C30.4053 64.5707 32.3322 64.6966 34.4443 64.2611C34.5409 65.3396 34.8351 66.3196 35.3405 67.1766C36.4227 69.0116 38.2355 69.8768 40.0123 69.988C41.7098 70.0941 43.5814 69.4955 45 68.2859C46.4186 69.4955 48.2902 70.0941 49.9877 69.988C51.7645 69.8768 53.5773 69.0116 54.6595 67.1766C55.1648 66.3196 55.4591 65.3396 55.5557 64.2611C57.6677 64.6966 59.5948 64.5707 61.2814 63.9214C63.8691 62.9252 65.5105 60.8411 66.26 58.5909C66.9991 56.3723 66.9261 53.8489 65.9589 51.7193C65.722 51.198 65.4307 50.7002 65.0857 50.2386C66.4795 49.4752 67.5889 48.5043 68.4079 47.3616C70.0248 45.1061 70.2968 42.4732 69.7293 40.2009C69.1718 37.9696 67.7604 35.9074 65.7516 34.7733C65.1432 34.43 64.4932 34.1805 63.8179 34.0376C64.0034 33.3253 64.0968 32.6276 64.0968 31.9474C64.0968 29.8735 63.2216 28.1637 61.8511 27.0209C60.4979 25.8924 58.6975 25.3528 56.9184 25.472C56.795 24.651 56.5154 23.8773 56.0775 23.1692C54.947 21.3418 53.0273 20.3905 51.1986 20.1015C49.3682 19.8122 47.3214 20.129 45.6623 21.2094C44.9684 21.6613 45.0316 21.6613 44.3377 21.2094ZM47.2802 63.2996V57.5655C47.283 56.4759 47.5302 54.8766 48.168 53.6359C48.7666 52.4709 49.5332 51.8791 50.7005 51.8791C51.9598 51.8791 52.9807 50.8575 52.9807 49.5971C52.9807 48.3368 51.9598 47.315 50.7005 47.315C49.3641 47.315 48.2309 47.6364 47.2802 48.1577V46.1555C47.283 45.0659 47.5302 43.4668 48.168 42.2259C48.7666 41.0609 49.5332 40.4691 50.7005 40.4691C51.9598 40.4691 52.9807 39.4475 52.9807 38.1871C52.9807 36.9268 51.9598 35.9051 50.7005 35.9051C49.3641 35.9051 48.2309 36.2263 47.2802 36.7478V26.7621C47.2841 25.8603 47.6525 25.3586 48.1498 25.0347C48.7355 24.6533 49.61 24.471 50.4873 24.6096C51.3666 24.7486 51.9407 25.1524 52.1998 25.5714C52.4098 25.9109 52.665 26.6657 52.025 28.1603C51.5943 29.1658 51.9373 30.3356 52.8425 30.9489C53.7477 31.5621 54.9602 31.4463 55.7332 30.6728C56.5689 29.8366 58.0825 29.8189 58.9316 30.527C59.2716 30.8105 59.5364 31.2401 59.5364 31.9474C59.5364 32.7141 59.2155 33.9689 57.9659 35.7198C57.3261 36.6163 57.4175 37.8422 58.1832 38.6336C58.9489 39.425 60.1702 39.556 61.0861 38.9449C62.0684 38.2896 62.8559 38.3787 63.5109 38.7485C64.2811 39.1833 65.0073 40.1162 65.305 41.308C65.5925 42.4586 65.437 43.6764 64.7023 44.7014C63.9695 45.7236 62.4466 46.8457 59.4466 47.3461C58.337 47.5311 57.5282 48.4982 57.5414 49.6236C57.5543 50.7491 58.3854 51.6971 59.4989 51.8561C60.6391 52.0191 61.3795 52.6664 61.8073 53.6077C62.265 54.6159 62.3348 55.9434 61.9336 57.1477C61.5429 58.3205 60.7616 59.2316 59.6441 59.6616C58.5223 60.0934 56.6816 60.1839 53.9243 58.9296C53.1275 58.5671 52.1939 58.6932 51.5214 59.2537C50.8489 59.8143 50.5564 60.7107 50.7686 61.5605C51.0502 62.688 51.5155 65.3196 49.7032 65.433C48.4509 65.5112 47.2868 64.558 47.2802 63.2996ZM42.7198 26.7621C42.7159 25.8603 42.3475 25.3586 41.8502 25.0347C41.2645 24.6533 40.3899 24.471 39.5127 24.6096C38.6334 24.7486 38.0593 25.1524 37.8002 25.5714C37.5902 25.9109 37.335 26.6657 37.975 28.1603C38.4056 29.1658 38.0627 30.3356 37.1575 30.9489C36.2524 31.5621 35.0397 31.4463 34.2668 30.6728C33.4312 29.8366 31.9174 29.8189 31.0683 30.527C30.7284 30.8105 30.4636 31.2401 30.4636 31.9474C30.4636 32.7141 30.7844 33.9689 32.0341 35.7198C32.6739 36.6163 32.5825 37.8422 31.8167 38.6336C31.051 39.425 29.8297 39.556 28.9138 38.9449C27.9315 38.2896 27.1441 38.3787 26.4891 38.7485C25.719 39.1833 24.9927 40.1162 24.695 41.308C24.4076 42.4586 24.563 43.6764 25.2976 44.7014C26.0305 45.7236 27.5534 46.8457 30.5535 47.3461C31.6629 47.5311 32.4717 48.4982 32.4587 49.6236C32.4456 50.7491 31.6145 51.6971 30.5011 51.8561C29.3609 52.0191 28.6205 52.6664 28.1928 53.6077C27.735 54.6159 27.6653 55.9434 28.0664 57.1477C28.457 58.3205 29.2384 59.2316 30.3558 59.6616C31.4777 60.0934 33.3185 60.1839 36.0757 58.9296C36.8725 58.5671 37.8062 58.6932 38.4787 59.2537C39.1512 59.8143 39.4436 60.7107 39.2314 61.5605C38.9497 62.688 38.4846 65.3196 40.2968 65.433C41.5491 65.5112 42.7132 64.558 42.7198 63.2996V63.2891V57.5664C42.717 56.4768 42.47 54.8771 41.832 53.6359C41.2334 52.4709 40.4668 51.8791 39.2995 51.8791C38.0401 51.8791 37.0192 50.8575 37.0192 49.5971C37.0192 48.3368 38.0401 47.315 39.2995 47.315C40.6359 47.315 41.7691 47.6364 42.7198 48.1577V46.1564C42.717 45.0668 42.47 43.4671 41.832 42.2259C41.2334 41.0609 40.4668 40.4691 39.2995 40.4691C38.0401 40.4691 37.0192 39.4475 37.0192 38.1871C37.0192 36.9268 38.0401 35.9051 39.2995 35.9051C40.6359 35.9051 41.7691 36.2263 42.7198 36.7478V26.7621Z" fill="white"/>
</svg>
