<svg width="90" height="90" viewBox="0 0 90 90" fill="none" xmlns="http://www.w3.org/2000/svg">
<rect x="1" y="1" width="88" height="87.5" rx="43.75" stroke="white" stroke-width="2"/>
<path d="M64.3097 26.6152C63.7751 26.2739 63.1638 26.0674 62.5295 26.0139C61.8951 25.9604 61.2571 26.0615 60.6716 26.3083L41.4863 33.7651C41.0321 33.9475 40.5464 34.0413 40.056 34.0413H27.7736C26.7428 34.0413 25.7542 34.4454 25.0252 35.1647C24.2963 35.8841 23.8868 36.8597 23.8868 37.877V38.1839H20V47.3897H23.8868V47.7887C23.9112 48.7899 24.3314 49.7421 25.0577 50.4417C25.784 51.1412 26.7587 51.5327 27.7736 51.5324L32.4378 61.2906C32.7536 61.9477 33.2509 62.5036 33.8724 62.8944C34.4939 63.2852 35.2145 63.4951 35.9515 63.5H37.9104C38.9359 63.4919 39.9166 63.0842 40.6388 62.3657C41.361 61.6473 41.7662 60.6762 41.7662 59.6642V51.9006L60.6716 59.3574C61.1367 59.54 61.6326 59.6337 62.1331 59.6335C62.9095 59.6212 63.6657 59.3867 64.3097 58.9584C64.8211 58.6177 65.243 58.1616 65.5404 57.628C65.8378 57.0944 66.0021 56.4986 66.0199 55.8898V29.7759C66.0171 29.1515 65.8598 28.5372 65.5617 27.9864C65.2637 27.4355 64.8339 26.9649 64.3097 26.6152ZM37.8794 37.877V47.7887H27.7736V37.877H37.8794ZM37.8794 59.6642H35.9204L32.0958 51.5324H37.8794V59.6642ZM42.9167 48.249C42.5475 48.0628 42.1625 47.9088 41.7662 47.7887V37.6622C42.1587 37.5823 42.5436 37.4694 42.9167 37.3247L62.1331 29.7759V55.7978L42.9167 48.249ZM66.1132 38.951V46.6226C67.144 46.6226 68.1327 46.2185 68.8616 45.4991C69.5905 44.7798 70 43.8041 70 42.7868C70 41.7695 69.5905 40.7939 68.8616 40.0745C68.1327 39.3552 67.144 38.951 66.1132 38.951Z" fill="white"/>
</svg>
