<svg width="90" height="94" viewBox="0 0 90 94" fill="none" xmlns="http://www.w3.org/2000/svg">
<rect x="1" y="1" width="88" height="91.2425" rx="44" stroke="white" stroke-width="2"/>
<path fill-rule="evenodd" clip-rule="evenodd" d="M69.3498 31.7439C68.6999 31.0325 63.7901 25.785 57.077 22.5597C53.7009 20.9377 49.7359 19.7617 45.549 20.0412C41.6259 20.3031 37.668 21.834 33.9748 25.1792C29.2931 24.3306 25.6957 25.2079 23.2692 27.7037C20.7882 30.2556 20.0823 33.9767 20.007 37.29C19.9298 40.6851 20.5052 44.1635 21.0753 46.7386C21.3631 48.0381 21.6556 49.1343 21.8774 49.909C21.9869 50.292 22.0795 50.5974 22.1462 50.8117C22.3403 63.2331 32.47 73.2425 44.9375 73.2425C56.8707 73.2425 66.6619 64.0726 67.6496 52.3952L69.9807 33.7379C70.0598 33.1047 69.9046 32.3511 69.3498 31.7439ZM28.9587 35.3422C27.2415 36.7958 25.7944 38.5168 24.6814 40.4731C24.5881 39.4468 24.5416 38.4076 24.5646 37.3936C24.6318 34.4384 25.2793 32.1761 26.5379 30.8815C27.6432 29.7447 29.7545 28.837 34.158 29.8731C34.9265 30.0539 35.7337 29.8243 36.2919 29.2661C39.4958 26.0621 42.759 24.7964 45.8527 24.5899C49.0053 24.3795 52.1691 25.2594 55.1028 26.6689C59.9556 29.0004 63.8128 32.601 65.3359 34.1412L64.6558 39.586C63.6284 37.993 62.3688 36.5719 60.9164 35.3422C56.7275 31.7965 51.0506 29.9337 44.9375 29.9337C38.8244 29.9337 33.1473 31.7965 28.9587 35.3422ZM63.1728 50.4483C63.1728 50.9473 63.1527 51.4417 63.1135 51.9306L62.9138 53.5278C61.4505 62.1324 53.9589 68.6836 44.9375 68.6836C34.8664 68.6836 26.7022 60.5195 26.7022 50.4483C26.7022 45.4528 28.7041 41.5306 31.9041 38.8218C35.1403 36.0824 39.7206 34.4925 44.9375 34.4925C50.1544 34.4925 54.7346 36.0824 57.9709 38.8218C61.1708 41.5306 63.1728 45.4528 63.1728 50.4483ZM35.8882 57.8396C35.5333 56.4195 36.6545 55.0078 38.0996 55.0067H51.7762C53.2193 55.0078 54.3423 56.414 53.9874 57.8336C52.8072 61.8183 49.0071 64.1248 44.9379 64.1248C41.0246 64.1248 36.8889 61.8422 35.8882 57.8396ZM55.1948 45.8895C55.1948 47.778 53.664 49.3086 51.7757 49.3086C49.8875 49.3086 48.3566 47.778 48.3566 45.8895C48.3566 44.0012 49.8875 42.4704 51.7757 42.4704C53.664 42.4704 55.1948 44.0012 55.1948 45.8895ZM38.0992 49.3086C39.9876 49.3086 41.5184 47.778 41.5184 45.8895C41.5184 44.0012 39.9876 42.4704 38.0992 42.4704C36.2109 42.4704 34.6801 44.0012 34.6801 45.8895C34.6801 47.778 36.2109 49.3086 38.0992 49.3086Z" fill="white"/>
</svg>
