<svg width="90" height="87" viewBox="0 0 90 87" fill="none" xmlns="http://www.w3.org/2000/svg">
<rect x="1" y="1" width="88" height="84.6667" rx="42.3333" stroke="white" stroke-width="2"/>
<path d="M31.1111 28.2353V66.6667M64.4444 28.2353C64.4444 25.6772 64.4444 24.3981 64.0217 23.3892C63.4578 22.0439 62.3761 20.9751 61.015 20.4179C59.9939 20 58.6997 20 56.1111 20C53.5225 20 52.2283 20 51.2072 20.4179C49.8461 20.9751 48.7644 22.0439 48.2006 23.3892C47.7778 24.3981 47.7778 25.6772 47.7778 28.2353M58.8889 47.451C58.8889 51.9993 55.1581 55.6863 50.5556 55.6863C45.9531 55.6863 42.2222 51.9993 42.2222 47.451C42.2222 42.9026 45.9531 39.2157 50.5556 39.2157C55.1581 39.2157 58.8889 42.9026 58.8889 47.451ZM28.8889 66.6667H61.1111C64.2225 66.6667 65.7783 66.6667 66.9667 66.0682C68.0119 65.542 68.8619 64.702 69.3944 63.669C70 62.4947 70 60.9571 70 57.8824V37.0196C70 33.9448 70 32.4074 69.3944 31.233C68.8619 30.1999 68.0119 29.36 66.9667 28.8337C65.7783 28.2353 64.2225 28.2353 61.1111 28.2353H28.8889C25.7775 28.2353 24.2218 28.2353 23.0334 28.8337C21.988 29.36 21.1381 30.1999 20.6055 31.233C20 32.4074 20 33.9448 20 37.0196V57.8824C20 60.9571 20 62.4947 20.6055 63.669C21.1381 64.702 21.988 65.542 23.0334 66.0682C24.2218 66.6667 25.7775 66.6667 28.8889 66.6667Z" stroke="white" stroke-width="5" stroke-linecap="round" stroke-linejoin="round"/>
</svg>
