<svg width="152" height="38" viewBox="0 0 152 38" fill="none" xmlns="http://www.w3.org/2000/svg">
<path d="M2.70898 4.67578C2.58529 4.60156 2.375 4.56445 2.07812 4.56445C1.80599 4.56445 1.5957 4.5026 1.44727 4.37891V4.04492C1.47201 3.72331 1.64518 3.52539 1.9668 3.45117C2.28841 3.37695 2.64714 3.33984 3.04297 3.33984C3.46354 3.33984 3.87174 3.35221 4.26758 3.37695C4.68815 3.40169 4.98503 3.35221 5.1582 3.22852C5.30664 3.27799 5.50456 3.33984 5.75195 3.41406C6.02409 3.46354 6.14779 3.58724 6.12305 3.78516C6.12305 3.95833 6.0612 4.06966 5.9375 4.11914C5.8138 4.16862 5.61589 4.2181 5.34375 4.26758C5.09635 4.31706 4.91081 4.41602 4.78711 4.56445C4.71289 4.68815 4.67578 4.79948 4.67578 4.89844C4.70052 4.97266 4.63867 5.05924 4.49023 5.1582C4.63867 6.12305 4.63867 7.2487 4.49023 8.53516C4.36654 9.79688 4.3418 10.8854 4.41602 11.8008C4.51497 12.7161 4.57682 13.6562 4.60156 14.6211C4.52734 14.6706 4.49023 14.7077 4.49023 14.7324L4.56445 14.8066C4.63867 15.0046 4.65104 15.4251 4.60156 16.0684C4.57682 16.6868 4.63867 17.1445 4.78711 17.4414C4.73763 17.4909 4.71289 17.5527 4.71289 17.627L4.75 17.998L4.63867 18.1465C4.63867 18.2207 4.67578 18.3073 4.75 18.4062C4.84896 18.5052 4.82422 18.6289 4.67578 18.7773C4.70052 18.9258 4.73763 19.0742 4.78711 19.2227C4.86133 19.3464 4.83659 19.5195 4.71289 19.7422L4.78711 20.707C4.78711 21.276 4.76237 21.8822 4.71289 22.5254C4.68815 23.1439 4.71289 23.8118 4.78711 24.5293L4.67578 24.7891L4.82422 24.8633C4.84896 25.0612 4.86133 25.3457 4.86133 25.7168V28.2031C4.86133 28.8216 4.81185 29.2422 4.71289 29.4648C4.63867 29.6628 4.60156 29.8607 4.60156 30.0586L4.56445 30.875C4.98503 31.0482 5.38086 31.1224 5.75195 31.0977C6.12305 31.0729 6.40755 31.0605 6.60547 31.0605L7.27344 30.9492L10.0195 31.209L10.3164 31.3203C10.4648 31.2461 10.737 31.2585 11.1328 31.3574C11.4792 31.3822 11.7266 31.2585 11.875 30.9863C12.0482 30.6895 12.1471 30.4544 12.1719 30.2812C12.1966 30.1081 12.1966 29.972 12.1719 29.873C12.1471 29.5762 12.2585 29.2546 12.5059 28.9082C12.9512 28.3887 13.3223 28.4134 13.6191 28.9824C13.8171 29.2793 13.8789 29.4896 13.8047 29.6133C13.582 30.0586 13.5078 30.3431 13.582 30.4668C13.6562 30.5905 13.7057 30.6895 13.7305 30.7637C13.6315 30.9368 13.5573 31.1471 13.5078 31.3945L13.5449 31.877L13.4336 32.248C13.4089 32.3717 13.4336 32.5078 13.5078 32.6562C13.6068 32.9531 13.5697 33.3118 13.3965 33.7324L13.0996 34.2891C12.8027 34.4128 12.5059 34.4746 12.209 34.4746C11.9616 34.4251 11.7513 34.3385 11.5781 34.2148C11.5039 34.1159 11.4668 33.9922 11.4668 33.8438C11.4668 33.7201 11.5039 33.6335 11.5781 33.584C11.4297 33.5098 11.3678 33.4355 11.3926 33.3613C11.4173 33.2871 11.4173 33.1758 11.3926 33.0273C11.3184 32.9036 10.9967 32.7676 10.4277 32.6191C9.85872 32.4707 9.54948 32.3965 9.5 32.3965C9.45052 32.3965 8.53516 32.347 6.75391 32.248L5.00977 32.4336C4.88607 32.4336 4.68815 32.4212 4.41602 32.3965C4.16862 32.3717 3.95833 32.4089 3.78516 32.5078C3.63672 32.6315 3.48828 32.7057 3.33984 32.7305C3.19141 32.7799 3.0306 32.7923 2.85742 32.7676C2.46159 32.6686 2.16471 32.6686 1.9668 32.7676L1.85547 32.6562C1.65755 32.6315 1.47201 32.6315 1.29883 32.6562C1.12565 32.681 0.964844 32.681 0.816406 32.6562C0.692708 32.6315 0.58138 32.6068 0.482422 32.582C0.408203 32.582 0.321615 32.5573 0.222656 32.5078C0.0742188 31.9388 0.222656 31.5801 0.667969 31.4316C0.816406 31.4069 0.952474 31.3945 1.07617 31.3945C1.22461 31.3698 1.36068 31.3327 1.48438 31.2832C1.63281 31.2337 1.76888 31.1966 1.89258 31.1719C2.01628 31.1224 2.13997 31.0729 2.26367 31.0234C2.33789 30.875 2.375 30.6771 2.375 30.4297L2.56055 29.3535C2.56055 29.2793 2.57292 29.2174 2.59766 29.168C2.64714 29.0938 2.65951 29.0319 2.63477 28.9824C2.46159 28.6855 2.42448 28.2155 2.52344 27.5723C2.64714 26.929 2.68424 26.3848 2.63477 25.9395L2.52344 25.3457C2.52344 25.2962 2.53581 25.2715 2.56055 25.2715C2.58529 25.2715 2.59766 25.2344 2.59766 25.1602C2.44922 24.8385 2.42448 24.2819 2.52344 23.4902C2.6224 22.6738 2.65951 22.0553 2.63477 21.6348C2.63477 21.1895 2.6224 20.8926 2.59766 20.7441C2.57292 20.5957 2.58529 20.3483 2.63477 20.002L2.56055 19.1855C2.53581 18.8887 2.54818 18.5918 2.59766 18.2949C2.64714 17.9733 2.63477 17.6764 2.56055 17.4043L2.33789 13.5449C2.33789 13.4707 2.375 13.3965 2.44922 13.3223C2.39974 13.1738 2.38737 13.0378 2.41211 12.9141C2.43685 12.7656 2.43685 12.6048 2.41211 12.4316C2.38737 12.2585 2.38737 12.11 2.41211 11.9863C2.43685 11.8379 2.42448 11.7637 2.375 11.7637C2.32552 11.7389 2.30078 11.6647 2.30078 11.541L2.44922 10.6504C2.47396 10.4277 2.46159 10.1556 2.41211 9.83398C2.38737 9.48763 2.42448 9.0918 2.52344 8.64648C2.77083 7.28581 2.83268 5.96224 2.70898 4.67578ZM17.4414 18.1094L17.7012 14.5469V13.3223C17.7012 13.1738 17.6888 13.0007 17.6641 12.8027L17.5527 11.4668C17.528 11.2441 17.5156 11.0091 17.5156 10.7617C17.5404 10.5143 17.5527 10.304 17.5527 10.1309V9.68555C17.5527 9.58659 17.5404 9.46289 17.5156 9.31445L17.4043 8.83203L17.4414 8.46094C17.4414 8.33724 17.4167 8.23828 17.3672 8.16406C17.3177 8.08984 17.2682 7.97852 17.2188 7.83008C17.194 7.68164 17.194 7.50846 17.2188 7.31055C17.2435 7.11263 17.2311 6.96419 17.1816 6.86523C17.1569 6.74154 17.1074 6.65495 17.0332 6.60547C16.9837 6.55599 16.9342 6.50651 16.8848 6.45703C16.8353 6.38281 16.7982 6.30859 16.7734 6.23438C16.7734 6.16016 16.724 6.08594 16.625 6.01172C16.5508 5.91276 16.4147 5.82617 16.2168 5.75195C16.0436 5.67773 15.8828 5.57878 15.7344 5.45508C15.7591 5.2819 15.7591 5.12109 15.7344 4.97266C15.7344 4.79948 15.7839 4.61393 15.8828 4.41602C16.1797 4.31706 16.4889 4.26758 16.8105 4.26758C17.1569 4.26758 17.4167 4.3418 17.5898 4.49023C17.7878 4.61393 17.998 4.67578 18.2207 4.67578C18.4681 4.67578 18.7279 4.56445 19 4.3418C19.2227 4.41602 19.5319 4.45312 19.9277 4.45312L21.3008 4.41602L23.1191 4.56445L23.7871 4.49023C24.1335 4.49023 24.4674 4.53971 24.7891 4.63867C25.1107 4.73763 25.4447 4.78711 25.791 4.78711L26.6816 4.75L27.2012 4.67578L27.832 4.82422L28.5 4.75L29.1309 4.78711C29.3288 4.78711 29.5391 4.75 29.7617 4.67578C29.9596 4.25521 30.0833 3.79753 30.1328 3.30273C30.207 2.80794 30.3678 2.38737 30.6152 2.04102C30.8626 1.99154 31.0482 1.9668 31.1719 1.9668C31.3203 1.9668 31.4316 2.02865 31.5059 2.15234C31.5801 2.27604 31.6172 2.375 31.6172 2.44922L31.543 2.67188L31.6543 3.48828L31.5801 4.15625L31.6914 5.23242L31.6172 5.90039L31.7285 6.49414L31.6172 7.23633L31.6543 7.49609C31.5306 7.59505 31.4316 7.73112 31.3574 7.9043C31.3079 8.07747 31.2461 8.22591 31.1719 8.34961C31.0234 8.42383 30.8626 8.51042 30.6895 8.60938C30.541 8.68359 30.4173 8.7207 30.3184 8.7207C30.2194 8.7207 30.1081 8.5599 29.9844 8.23828C29.8607 7.91667 29.7988 7.6569 29.7988 7.45898L29.873 6.64258V6.41992C29.6751 6.22201 29.4277 6.12305 29.1309 6.12305L28.4629 6.30859L27.3496 6.04883L26.4219 6.12305C26.3477 6.12305 26.2858 6.09831 26.2363 6.04883H25.4941L24.1211 5.97461C23.849 5.97461 23.6263 6.01172 23.4531 6.08594C23.2799 6.13542 23.0944 6.1849 22.8965 6.23438C22.6986 6.28385 22.4512 6.33333 22.1543 6.38281C21.8822 6.40755 21.5977 6.43229 21.3008 6.45703C21.0286 6.48177 20.7441 6.50651 20.4473 6.53125C20.1751 6.55599 19.9772 6.56836 19.8535 6.56836C19.7298 6.69206 19.6803 6.85286 19.7051 7.05078C19.7298 7.22396 19.7174 7.3724 19.668 7.49609C19.6185 7.59505 19.5814 7.64453 19.5566 7.64453C19.5319 7.64453 19.5195 7.73112 19.5195 7.9043L19.7422 9.72266V10.6875L19.7793 11.207C19.7298 11.207 19.7051 11.2689 19.7051 11.3926C19.7051 11.4915 19.7917 11.7142 19.9648 12.0605C19.9401 12.1595 19.9277 12.2956 19.9277 12.4688L19.8164 12.9512L19.9277 13.3965L19.8906 14.2871L19.9648 15.4004L19.7051 19.5938C19.7051 19.9648 19.7546 20.3483 19.8535 20.7441C19.9525 21.14 19.9648 21.5111 19.8906 21.8574C20.138 22.1048 20.6452 22.2285 21.4121 22.2285C22.2038 22.2285 22.6862 22.2409 22.8594 22.2656L23.3047 22.3398L23.6758 22.2656L24.5293 22.4141L25.4199 22.4883C25.7415 22.4883 25.9518 22.3522 26.0508 22.0801C26.125 21.6842 26.224 21.4245 26.3477 21.3008C26.3477 20.9544 26.4095 20.6576 26.5332 20.4102L27.0898 20.2617C27.2135 20.2617 27.3249 20.373 27.4238 20.5957C27.5475 20.7936 27.6094 20.9544 27.6094 21.0781L27.3125 23.3418L27.4609 24.3809C27.2878 24.6777 27.1517 24.9746 27.0527 25.2715C26.9043 25.2962 26.7559 25.3457 26.6074 25.4199C26.459 25.4694 26.3105 25.4941 26.1621 25.4941C26.1126 25.4447 26.0632 25.3828 26.0137 25.3086C25.9889 25.2096 25.9271 25.123 25.8281 25.0488C25.7539 24.9499 25.6921 24.8014 25.6426 24.6035C25.6178 24.3809 25.5807 24.1829 25.5312 24.0098C25.3581 23.8861 25.1602 23.849 24.9375 23.8984C24.7148 23.9232 24.5293 23.8613 24.3809 23.7129C24.1829 23.8118 24.0098 23.8613 23.8613 23.8613C23.7376 23.8613 23.6016 23.8118 23.4531 23.7129C23.1562 23.8118 22.8346 23.8613 22.4883 23.8613L21.2637 23.8242H20.9297C20.7565 23.8242 20.5833 23.8613 20.4102 23.9355C20.2617 24.0098 20.1628 24.0469 20.1133 24.0469C20.0638 24.0221 20.0143 24.0345 19.9648 24.084L20.002 24.2324L19.7793 26.0879L19.8535 27.1641L19.7422 27.7949L19.8535 28.2402L19.7422 29.9102C19.7422 30.7018 20.002 31.0977 20.5215 31.0977L21.2266 31.0234L22.1172 31.1348C22.3151 31.1348 22.4759 31.0729 22.5996 30.9492C22.7728 31.0234 22.9707 31.0605 23.1934 31.0605L24.5664 30.9492H24.7891C24.888 30.9492 24.987 30.974 25.0859 31.0234C25.3581 30.9245 25.7044 30.875 26.125 30.875C26.5456 30.875 26.8796 30.8626 27.127 30.8379C27.3991 30.8132 27.6465 30.7884 27.8691 30.7637C28.1165 30.7142 28.3516 30.6895 28.5742 30.6895L29.2051 30.7266C29.4772 30.7266 29.638 30.6771 29.6875 30.5781C29.7617 30.4544 29.8607 30.3678 29.9844 30.3184C30.0091 30.2194 30.0339 30.0833 30.0586 29.9102C30.1576 29.2174 30.3802 28.8711 30.7266 28.8711C30.9492 28.8711 31.0853 28.9329 31.1348 29.0566C31.209 29.1803 31.3327 29.304 31.5059 29.4277C31.5801 30.3184 31.6172 30.9245 31.6172 31.2461C31.5677 31.2461 31.543 31.2708 31.543 31.3203L31.6172 32.1738C31.6172 32.446 31.5553 32.681 31.4316 32.8789C31.4564 33.0026 31.3945 33.0645 31.2461 33.0645C31.0977 33.0645 30.974 33.0892 30.875 33.1387C30.8008 33.2129 30.7389 33.2871 30.6895 33.3613C30.64 33.4355 30.5534 33.4727 30.4297 33.4727L29.7988 33.25C29.7741 33.0273 29.7493 32.7799 29.7246 32.5078C29.6999 32.2357 29.6257 32.0007 29.502 31.8027C29.3535 31.8275 29.2051 31.8398 29.0566 31.8398H28.5742C28.0794 31.8398 27.8073 31.9141 27.7578 32.0625C27.6589 32.013 27.5475 31.9883 27.4238 31.9883C27.3249 31.9883 27.2012 32.0378 27.0527 32.1367C26.9785 32.0625 26.8796 32.0254 26.7559 32.0254L26.2363 32.0625L25.8281 31.9883L25.4199 32.0625L24.7891 31.877C24.5417 31.877 24.1458 32.0625 23.6016 32.4336L22.6367 32.1738C22.5872 32.1738 22.5378 32.2109 22.4883 32.2852C22.4635 32.3346 22.4017 32.3594 22.3027 32.3594L21.1523 32.2109L20.373 32.3223H19.7793C19.1361 32.3223 18.7031 32.4089 18.4805 32.582C18.3568 32.4831 18.1836 32.4336 17.9609 32.4336L17.7012 32.5078L17.5156 32.4336C17.3177 32.4336 17.0951 32.5078 16.8477 32.6562C16.625 32.8047 16.4766 32.8789 16.4023 32.8789C15.9076 32.8789 15.6602 32.5697 15.6602 31.9512V31.7656C15.7591 31.5677 16.0312 31.4193 16.4766 31.3203C16.9219 31.2214 17.1693 31.1719 17.2188 31.1719C17.3177 30.974 17.3796 30.7389 17.4043 30.4668C17.4538 30.1947 17.4909 29.972 17.5156 29.7988C17.5404 29.6257 17.5527 29.502 17.5527 29.4277L17.4414 28.7598L17.5527 28.3145L17.4414 28.0176L17.5156 27.6465L17.4043 27.3125L17.5156 26.3477C17.5404 26.2487 17.5404 26.1621 17.5156 26.0879C17.5156 25.9889 17.5156 25.8776 17.5156 25.7539L17.627 24.7891L17.4785 23.8613C17.4785 23.7376 17.4909 23.6263 17.5156 23.5273C17.5404 23.4284 17.5651 23.3171 17.5898 23.1934C17.6146 23.0449 17.6146 22.8965 17.5898 22.748C17.5898 22.5749 17.5898 22.4141 17.5898 22.2656V21.8574C17.5404 21.8574 17.5156 21.8327 17.5156 21.7832L17.627 21.5234L17.5156 21.0781C17.4414 20.806 17.4043 20.4596 17.4043 20.0391C17.429 19.5938 17.4414 19.2227 17.4414 18.9258V18.1094ZM31.7656 34.623C31.6172 34.623 31.543 34.487 31.543 34.2148C31.543 33.9427 31.6419 33.7201 31.8398 33.5469C31.9883 33.4974 32.0996 33.4727 32.1738 33.4727L32.7676 33.5469L33.3242 33.4727L33.6582 33.5098C34.0293 33.5098 34.2767 33.0645 34.4004 32.1738C34.4499 31.8275 34.4993 31.4811 34.5488 31.1348C34.5983 30.7884 34.6973 30.541 34.8457 30.3926C34.7962 30.3678 34.7715 30.3184 34.7715 30.2441C34.7715 30.1699 34.7962 30.0586 34.8457 29.9102C34.8952 29.7617 34.9323 29.6133 34.957 29.4648C35.0065 29.3164 35.056 29.1803 35.1055 29.0566C35.1549 28.9082 35.1921 28.7969 35.2168 28.7227C35.2415 28.6484 35.2663 28.5866 35.291 28.5371C35.3405 28.4629 35.3776 28.3516 35.4023 28.2031C35.4518 28.0547 35.4766 27.8939 35.4766 27.7207C35.4766 27.5475 35.4889 27.3991 35.5137 27.2754C35.5632 27.127 35.6003 27.0156 35.625 26.9414C35.6497 26.8672 35.6992 26.6693 35.7734 26.3477C35.8724 26.026 35.959 25.5931 36.0332 25.0488C36.1074 24.4798 36.2188 23.9232 36.3672 23.3789C36.5156 22.8099 36.6764 22.2533 36.8496 21.709C37.0228 21.14 37.1465 20.6699 37.2207 20.2988C37.3197 19.9277 37.3815 19.6556 37.4062 19.4824C37.4557 19.1361 37.5299 18.8639 37.6289 18.666C37.7526 18.4681 37.8268 18.2949 37.8516 18.1465C37.901 17.998 37.9629 17.8001 38.0371 17.5527C38.1361 17.3053 38.2103 16.9837 38.2598 16.5879C38.3092 16.1673 38.3711 15.8457 38.4453 15.623C38.5195 15.4004 38.5566 15.2767 38.5566 15.252C38.5814 15.2272 38.5938 15.153 38.5938 15.0293C38.5938 14.9056 38.6061 14.819 38.6309 14.7695C38.6803 14.7201 38.7298 14.6582 38.7793 14.584L38.9648 13.5449L39.0391 13.5078L39.002 13.3594C39.002 13.013 39.138 12.5801 39.4102 12.0605C39.707 11.5163 39.8802 11.2194 39.9297 11.1699C39.9544 11.0462 39.9544 10.9225 39.9297 10.7988C39.9297 10.5267 39.9915 10.3535 40.1152 10.2793C40.1895 10.2051 40.2513 10.0319 40.3008 9.75977L40.4492 9.68555V9.5C40.4492 9.40104 40.5234 9.31445 40.6719 9.24023C40.7214 9.04232 40.7585 8.85677 40.7832 8.68359C40.8327 8.51042 40.8822 8.33724 40.9316 8.16406L41.1914 7.68164C41.2409 7.60742 41.2656 7.5332 41.2656 7.45898C41.2656 7.36003 41.2904 7.26107 41.3398 7.16211C41.4141 7.03841 41.513 6.91471 41.6367 6.79102C41.7604 6.66732 41.847 6.49414 41.8965 6.27148C41.9707 6.02409 41.9831 5.77669 41.9336 5.5293C41.9089 5.25716 41.9707 4.9974 42.1191 4.75C42.2676 4.67578 42.4779 4.63867 42.75 4.63867C43.0469 4.63867 43.2943 4.81185 43.4922 5.1582C43.6901 5.47982 43.7891 5.8138 43.7891 6.16016C43.9128 6.33333 43.9993 6.51888 44.0488 6.7168C44.123 6.91471 44.2344 7.07552 44.3828 7.19922V7.27344C44.3828 7.66927 44.5189 8.15169 44.791 8.7207C45.0879 9.28971 45.2363 9.69792 45.2363 9.94531C45.3105 10.0195 45.3848 10.2298 45.459 10.5762C45.5579 10.9225 45.7682 11.2565 46.0898 11.5781L46.0527 11.6895C46.0527 11.9616 46.1146 12.209 46.2383 12.4316C46.5104 12.9017 46.6465 13.347 46.6465 13.7676C46.6465 14.1634 46.8444 14.8932 47.2402 15.957C47.6361 16.9961 47.8587 17.7507 47.9082 18.2207L47.8711 18.2578C47.8711 18.332 47.8958 18.3691 47.9453 18.3691C48.1185 18.4186 48.2051 18.5671 48.2051 18.8145C48.2051 19.0618 48.3164 19.3216 48.5391 19.5938C48.6628 19.8164 48.7493 20.0638 48.7988 20.3359C48.873 20.5833 49.0091 20.806 49.207 21.0039V21.0781C49.207 21.2513 49.2441 21.4121 49.3184 21.5605C49.3926 21.709 49.4421 21.8451 49.4668 21.9688C49.5163 22.0924 49.541 22.2038 49.541 22.3027C49.5658 22.377 49.5905 22.4512 49.6152 22.5254C49.6647 22.5996 49.7266 22.748 49.8008 22.9707C49.8997 23.1686 49.9863 23.3913 50.0605 23.6387C50.1595 23.8861 50.2461 24.1087 50.3203 24.3066C50.3945 24.5046 50.4316 24.6283 50.4316 24.6777V24.7891C50.5553 24.9128 50.6296 25.0488 50.6543 25.1973C50.679 25.321 50.7161 25.457 50.7656 25.6055C50.9141 25.8034 51.0007 26.026 51.0254 26.2734C51.0501 26.5208 51.0872 26.7559 51.1367 26.9785C51.2109 27.2012 51.2852 27.3867 51.3594 27.5352C51.4583 27.6836 51.5449 27.8444 51.6191 28.0176C51.7181 28.1908 51.7799 28.4134 51.8047 28.6855C51.8542 28.9329 51.9036 29.1556 51.9531 29.3535C52.0026 29.5267 52.0645 29.6999 52.1387 29.873C52.2376 30.0215 52.3118 30.1947 52.3613 30.3926C52.4108 30.5658 52.4232 30.7513 52.3984 30.9492C52.3984 31.3203 52.4479 31.6048 52.5469 31.8027C52.6706 31.9759 52.7695 32.2109 52.8438 32.5078C52.9922 32.8294 53.0911 33.1263 53.1406 33.3984C53.1901 33.6706 53.3014 33.8809 53.4746 34.0293L53.5859 34.0664C53.8828 34.0664 54.0931 33.9922 54.2168 33.8438C54.3652 33.7201 54.5632 33.6458 54.8105 33.6211C55.1569 33.819 55.3301 34.0911 55.3301 34.4375C55.3301 34.5117 55.3177 34.5736 55.293 34.623C55.3424 34.7715 55.2435 34.8704 54.9961 34.9199C54.7734 34.9941 54.6126 35.0436 54.5137 35.0684C54.3158 35.2168 54.1302 35.2786 53.957 35.2539C53.8086 35.2539 53.6849 35.2663 53.5859 35.291C53.5117 35.3158 53.4499 35.3405 53.4004 35.3652C53.3757 35.39 53.3385 35.4147 53.2891 35.4395H52.9922C52.8685 35.4395 52.7324 35.5013 52.584 35.625C52.4603 35.7487 52.349 35.8105 52.25 35.8105C52.151 35.8105 51.916 35.7858 51.5449 35.7363L50.3945 35.959C50.2708 35.959 50.1842 35.9466 50.1348 35.9219C49.9616 35.9714 49.8132 36.0332 49.6895 36.1074C49.5658 36.1816 49.4049 36.2188 49.207 36.2188C49.1328 36.0951 49.0586 35.9714 48.9844 35.8477C48.9102 35.724 48.873 35.5755 48.873 35.4023C48.9473 35.1797 49.1204 35.0189 49.3926 34.9199C49.6647 34.821 49.9245 34.722 50.1719 34.623C50.4193 34.5488 50.6419 34.4622 50.8398 34.3633C51.0378 34.2891 51.1367 34.1654 51.1367 33.9922L50.7656 32.6562C50.7161 32.582 50.6667 32.5078 50.6172 32.4336C50.5677 32.3841 50.5182 32.2975 50.4688 32.1738C50.444 32.0501 50.4316 31.9017 50.4316 31.7285C50.4316 31.5306 50.4069 31.3574 50.3574 31.209C50.3079 31.0605 50.2585 30.9121 50.209 30.7637C50.1595 30.6152 50.11 30.4792 50.0605 30.3555C49.9368 30.2565 49.7884 30.1081 49.6152 29.9102C49.4421 29.6875 49.2689 29.5762 49.0957 29.5762L48.6133 29.6504L48.168 29.5762C48.069 29.5762 47.9701 29.6009 47.8711 29.6504C47.5742 29.7493 47.2155 29.7988 46.7949 29.7988H46.0898L45.459 29.7246L45.2734 29.7988L44.6797 29.6504L44.2715 29.6875C44.1725 29.6875 44.0859 29.6504 44.0117 29.5762C43.7148 29.7246 43.5169 29.7988 43.418 29.7988L42.5645 29.6504L42.1562 29.7246L41.5996 29.5762L40.5977 29.6504H40.0039C38.7174 29.6504 37.8392 29.8112 37.3691 30.1328V30.2812H37.2207C37.0475 30.4544 36.8372 30.9863 36.5898 31.877C36.3424 32.7676 36.2188 33.2747 36.2188 33.3984C36.2188 33.5221 36.293 33.6211 36.4414 33.6953C36.6146 33.7695 36.763 33.8066 36.8867 33.8066C37.0104 33.8066 37.2207 33.7695 37.5176 33.6953C37.7402 33.8438 37.9382 34.0293 38.1113 34.252C38.0866 34.4499 38.0371 34.623 37.9629 34.7715C37.8887 34.9199 37.8145 35.0684 37.7402 35.2168L36.2559 35.0312L35.9961 34.9199L35.4395 34.9941L34.7344 34.8086L34.3633 34.8828L33.9551 34.8457C33.7572 34.8457 33.6458 34.8828 33.6211 34.957C33.5716 34.957 33.5469 34.9447 33.5469 34.9199C33.5469 34.8952 33.5221 34.8828 33.4727 34.8828L32.916 35.0684C32.8171 35.0684 32.6439 35.0312 32.3965 34.957C32.1491 34.9076 32.0254 34.8086 32.0254 34.6602C32.0254 34.5859 31.9883 34.5488 31.9141 34.5488C31.8646 34.5983 31.8151 34.623 31.7656 34.623ZM45.3848 28.2773C45.4837 28.2773 45.5579 28.265 45.6074 28.2402C45.6816 28.2155 45.8424 28.2897 46.0898 28.4629C46.362 28.3639 46.6217 28.3145 46.8691 28.3145H47.7227C48.0938 28.3145 48.4648 28.2773 48.8359 28.2031C48.8112 28.1042 48.873 28.0052 49.0215 27.9062V27.7949C49.0215 27.5228 48.972 27.2754 48.873 27.0527C48.7988 26.8053 48.737 26.5951 48.6875 26.4219C48.6628 26.2487 48.6504 26.1126 48.6504 26.0137C48.6751 25.9147 48.6628 25.8281 48.6133 25.7539C48.5638 25.6549 48.5143 25.5684 48.4648 25.4941C48.3411 25.3457 48.2546 25.123 48.2051 24.8262C48.1803 24.653 48.1185 24.4798 48.0195 24.3066C47.9453 24.1335 47.9082 23.9974 47.9082 23.8984C47.9082 23.7995 47.8835 23.6758 47.834 23.5273L47.0176 21.7832C46.9928 21.7337 46.9805 21.709 46.9805 21.709C47.0052 21.6842 47.0176 21.6348 47.0176 21.5605C47.0176 21.4863 46.8815 21.2389 46.6094 20.8184C46.362 20.3978 46.2507 20.1257 46.2754 20.002C46.3249 19.8783 46.3125 19.7174 46.2383 19.5195C46.1641 19.2969 46.0651 19.0247 45.9414 18.7031C45.8177 18.3815 45.7311 18.0475 45.6816 17.7012C45.5579 17.6517 45.4961 17.6022 45.4961 17.5527C45.5208 17.4785 45.5085 17.3796 45.459 17.2559L45.3105 17.1074C45.2611 16.9837 45.2363 16.8477 45.2363 16.6992C45.2363 16.5508 45.224 16.4023 45.1992 16.2539C44.9023 15.8828 44.7539 15.3757 44.7539 14.7324L44.3828 13.9531C44.457 13.8047 44.4941 13.6686 44.4941 13.5449C44.4941 13.4212 44.4323 13.3346 44.3086 13.2852C44.2096 13.2109 44.1602 13.0501 44.1602 12.8027C44.1602 12.5553 44.0859 12.3203 43.9375 12.0977C43.7891 11.875 43.7148 11.6029 43.7148 11.2812C43.6901 11.2318 43.6406 11.207 43.5664 11.207C43.5169 11.1823 43.4427 11.1204 43.3438 11.0215C43.2448 10.8978 43.1458 10.7493 43.0469 10.5762C42.9727 10.403 42.8242 10.2546 42.6016 10.1309V10.0566C42.5273 10.0566 42.4902 10.0814 42.4902 10.1309C42.3418 10.1309 42.2305 10.3288 42.1562 10.7246C42.082 11.1204 41.946 11.4297 41.748 11.6523C41.7233 11.7513 41.7109 11.8503 41.7109 11.9492C41.7357 12.0234 41.7233 12.1471 41.6738 12.3203C41.6243 12.4935 41.5625 12.7285 41.4883 13.0254C41.3398 13.2233 41.2409 13.4831 41.1914 13.8047C41.1667 14.1263 41.0801 14.4108 40.9316 14.6582C40.9069 14.7819 40.8822 14.918 40.8574 15.0664C40.8574 15.2148 40.8327 15.3509 40.7832 15.4746C40.7585 15.5736 40.7214 15.6725 40.6719 15.7715C40.6471 15.8457 40.6224 15.9323 40.5977 16.0312L40.375 17.9238C40.1029 18.3197 39.9792 18.7402 40.0039 19.1855C39.9297 19.235 39.8802 19.3092 39.8555 19.4082C39.8555 19.4824 39.8184 19.5443 39.7441 19.5938C39.6699 20.237 39.3854 21.0905 38.8906 22.1543V22.8223C38.7422 23.0449 38.5938 23.5397 38.4453 24.3066C38.3216 25.0736 38.2598 25.5065 38.2598 25.6055C38.2103 25.6549 38.1732 25.7292 38.1484 25.8281C38.1237 25.9023 38.0495 25.9642 37.9258 26.0137C37.9505 26.0879 37.9629 26.1868 37.9629 26.3105L37.7402 27.9062C37.9629 28.1042 38.2721 28.2031 38.668 28.2031L41.3398 28.0918C41.4883 28.0918 41.6367 28.0918 41.7852 28.0918L43.3438 28.2773L44.6797 28.2031L45.3848 28.2773ZM76.3711 32.7676L76.1484 32.7305C75.9505 32.4089 75.8516 32.1862 75.8516 32.0625C75.8516 31.9388 75.8887 31.7904 75.9629 31.6172C76.0618 31.4193 76.1361 31.3079 76.1855 31.2832C76.2598 31.2337 76.3092 31.2214 76.334 31.2461C76.3587 31.2461 76.3958 31.209 76.4453 31.1348C76.5195 31.0358 76.6927 30.8997 76.9648 30.7266C77.237 30.5534 77.472 30.4668 77.6699 30.4668C77.8926 30.4668 78.1029 30.541 78.3008 30.6895C78.5234 30.8379 78.7585 30.9245 79.0059 30.9492C79.1296 30.9987 79.1914 31.0977 79.1914 31.2461C79.2161 31.3945 79.2656 31.5306 79.3398 31.6543H79.4883C79.5378 31.7038 79.5625 31.7904 79.5625 31.9141C79.5872 32.0378 79.612 32.1367 79.6367 32.2109C79.6862 32.2852 79.748 32.347 79.8223 32.3965C79.8965 32.446 79.946 32.5078 79.9707 32.582C80.0202 32.681 80.0202 32.7923 79.9707 32.916C79.946 33.0645 79.9954 33.1758 80.1191 33.25C80.0944 33.3242 80.082 33.4479 80.082 33.6211L80.1191 34.623C80.1191 35.0684 80.0326 35.3281 79.8594 35.4023C79.7109 35.5013 79.5872 35.6621 79.4883 35.8848C79.4141 36.1074 79.3275 36.2806 79.2285 36.4043C79.1543 36.528 79.0553 36.5775 78.9316 36.5527C78.8079 36.5527 78.7461 36.6146 78.7461 36.7383C78.6471 36.8867 78.5234 37.0104 78.375 37.1094H78.2637L77.8555 37.0352C77.7565 37.1094 77.6452 37.1589 77.5215 37.1836C77.4225 37.2331 77.3483 37.2826 77.2988 37.332C77.2493 37.3815 77.1999 37.4062 77.1504 37.4062L76.8164 37.332C76.7669 37.4557 76.6803 37.5052 76.5566 37.4805C76.4577 37.4805 76.334 37.4805 76.1855 37.4805C76.0371 37.4805 75.9382 37.5176 75.8887 37.5918C75.8392 37.6908 75.666 37.7402 75.3691 37.7402C75.097 37.7402 74.8001 37.5794 74.4785 37.2578C74.1322 37.2083 73.8477 37.0475 73.625 36.7754C73.4023 36.528 73.2168 36.3301 73.0684 36.1816C72.9447 36.0579 72.8581 35.9961 72.8086 35.9961C72.7591 35.9961 72.7096 35.9714 72.6602 35.9219C72.6107 35.8724 72.5859 35.8229 72.5859 35.7734C72.6107 35.724 72.5983 35.6745 72.5488 35.625C72.5241 35.6003 72.4993 35.5879 72.4746 35.5879C72.4499 35.6126 72.4128 35.5879 72.3633 35.5137C72.3138 35.4642 72.2767 35.4271 72.252 35.4023C72.252 35.3776 72.1901 35.3405 72.0664 35.291C72.0169 35.2168 71.9922 35.1426 71.9922 35.0684C72.0169 34.9941 71.9922 34.9199 71.918 34.8457C71.8685 34.7962 71.7943 34.6973 71.6953 34.5488C71.3737 33.9798 71.1387 33.6211 70.9902 33.4727C70.9408 33.3242 70.8913 33.1634 70.8418 32.9902C70.8171 32.8418 70.7428 32.7305 70.6191 32.6562C70.6191 32.4089 70.5573 32.1862 70.4336 31.9883C70.3099 31.7904 70.1738 31.3574 70.0254 30.6895C69.877 29.9967 69.4935 28.9453 68.875 27.5352L68.9121 27.0527C68.8626 26.9785 68.7637 26.8301 68.6152 26.6074C68.4915 26.36 68.4049 26.1992 68.3555 26.125C68.306 26.0508 68.2812 25.9642 68.2812 25.8652C68.306 25.7663 68.2936 25.6673 68.2441 25.5684L68.1328 25.4941C68.0586 25.2962 68.0215 25.1107 68.0215 24.9375V24.9004L67.873 24.8262C67.8483 24.7272 67.8359 24.6283 67.8359 24.5293C67.8359 24.3561 67.7617 24.1829 67.6133 24.0098C67.4896 23.8118 67.3164 23.4531 67.0938 22.9336L66.9453 22.8594C66.8958 22.7357 66.8711 22.612 66.8711 22.4883C66.8711 22.3398 66.8464 22.2038 66.7969 22.0801C66.6732 21.7337 66.4505 21.3997 66.1289 21.0781C65.832 20.7318 65.5352 20.5586 65.2383 20.5586H65.2012L65.127 20.373C65.028 20.3236 64.9167 20.2865 64.793 20.2617C64.694 20.2122 64.6074 20.1504 64.5332 20.0762C64.459 20.1009 64.3477 20.1133 64.1992 20.1133L63.1973 20.0391C62.9746 20.0391 62.7891 20.0762 62.6406 20.1504C62.4427 20.1504 62.319 20.1133 62.2695 20.0391C62.2448 19.9401 62.1706 19.8659 62.0469 19.8164C61.7253 20.1628 61.3294 20.3236 60.8594 20.2988C60.6367 20.7936 60.5254 21.3379 60.5254 21.9316C60.5254 22.5007 60.5749 22.9583 60.6738 23.3047C60.7975 23.6263 60.8594 23.849 60.8594 23.9727L60.748 24.3438L60.8965 24.8633L60.8594 25.3457L61.0449 26.6445L60.9336 28.7598L60.7109 31.9512C60.7109 32.5944 60.7852 33.1882 60.9336 33.7324H61.0078L61.8242 33.6582C62.0221 33.6582 62.1706 33.7077 62.2695 33.8066C62.2943 33.9056 62.3066 34.0417 62.3066 34.2148V34.4746C62.2819 34.4993 62.1953 34.5365 62.0469 34.5859C61.8984 34.6354 61.7253 34.6973 61.5273 34.7715C61.3542 34.8704 61.1686 34.9447 60.9707 34.9941C60.7975 35.0684 60.6738 35.1426 60.5996 35.2168C60.4512 35.1673 60.3398 35.1426 60.2656 35.1426L59.375 35.291L58.5586 35.2168C58.3854 35.2168 58.2741 35.2415 58.2246 35.291C58.1751 35.3652 58.0762 35.4023 57.9277 35.4023C57.7793 35.4023 57.6927 35.4271 57.668 35.4766C57.668 35.526 57.6309 35.5632 57.5566 35.5879C57.4824 35.6126 57.4082 35.6126 57.334 35.5879C57.2598 35.5632 57.1855 35.5508 57.1113 35.5508H57.0742C57.0495 35.6497 56.9629 35.6992 56.8145 35.6992H56.6289C56.5547 35.4023 56.5176 35.1549 56.5176 34.957C56.5176 34.6107 56.8145 34.4004 57.4082 34.3262C58.002 34.2767 58.3607 34.1777 58.4844 34.0293V33.918L58.3359 31.8398L58.4844 30.4668L58.373 29.7988L58.4844 29.3535L58.4102 28.9824L58.4844 27.7207C58.4844 26.929 58.4473 26.3353 58.373 25.9395L58.2246 25.123L58.2617 24.6035C58.2617 24.4798 58.237 24.3561 58.1875 24.2324C58.138 24.084 58.1009 23.9232 58.0762 23.75C58.0514 23.5768 58.0391 23.3913 58.0391 23.1934C58.0638 22.9954 58.0391 22.7975 57.9648 22.5996C57.9648 22.3522 58.0143 22.179 58.1133 22.0801C57.9896 21.8327 57.9277 21.4987 57.9277 21.0781L58.0391 19.4082L57.8906 18.1094L57.9277 15.6602L57.8535 14.6211L57.8906 13.8418L57.7793 13.0996C57.7793 12.8275 57.804 12.5677 57.8535 12.3203C57.903 12.0729 57.9401 11.7637 57.9648 11.3926C58.0143 10.9967 58.0514 10.5514 58.0762 10.0566C58.1009 9.56185 58.138 9.15365 58.1875 8.83203C58.2617 8.48568 58.3112 8.23828 58.3359 8.08984C58.3854 7.94141 58.4102 7.76823 58.4102 7.57031L58.373 7.23633C58.2741 7.01367 58.0638 6.90234 57.7422 6.90234C57.4453 6.90234 57.235 6.92708 57.1113 6.97656C57.0124 7.02604 56.901 7.07552 56.7773 7.125C56.6784 7.17448 56.5176 7.22396 56.2949 7.27344C56.0723 7.29818 55.763 7.34766 55.3672 7.42188C54.9714 7.47135 54.6621 7.49609 54.4395 7.49609C54.2168 7.49609 54.056 7.48372 53.957 7.45898C53.8086 7.31055 53.7344 7.08789 53.7344 6.79102C53.7344 6.49414 53.8828 6.29622 54.1797 6.19727C54.5013 6.09831 54.86 6.03646 55.2559 6.01172C55.6517 5.96224 56.0475 5.8138 56.4434 5.56641C56.4928 5.59115 56.5671 5.60352 56.666 5.60352L57.7051 5.45508C57.7546 5.45508 57.7793 5.43034 57.7793 5.38086C57.804 5.33138 57.8906 5.29427 58.0391 5.26953C58.2122 5.22005 58.4225 5.19531 58.6699 5.19531C58.9421 5.17057 59.2266 5.13346 59.5234 5.08398L59.9688 4.93555C60.0924 4.91081 60.2038 4.91081 60.3027 4.93555C60.4017 4.93555 60.5378 4.93555 60.7109 4.93555C60.8841 4.93555 61.0449 4.91081 61.1934 4.86133C61.3418 4.81185 61.4902 4.76237 61.6387 4.71289C61.7871 4.78711 61.9355 4.82422 62.084 4.82422L63.5312 4.63867H64.6074C65.1517 4.63867 65.8197 4.76237 66.6113 5.00977C67.4277 5.23242 67.8854 5.34375 67.9844 5.34375C68.0833 5.34375 68.1823 5.36849 68.2812 5.41797C68.4049 5.44271 68.4915 5.49219 68.541 5.56641C68.6152 5.61589 68.7018 5.66536 68.8008 5.71484C68.9245 5.76432 69.0234 5.78906 69.0977 5.78906C69.1966 5.78906 69.2956 5.8138 69.3945 5.86328L69.4688 6.01172C69.9141 6.23438 70.1986 6.43229 70.3223 6.60547C70.446 6.77865 70.582 6.8776 70.7305 6.90234L71.3613 7.94141C71.4108 7.99089 71.4603 8.04036 71.5098 8.08984C71.5592 8.11458 71.6087 8.16406 71.6582 8.23828C71.7077 8.28776 71.7201 8.34961 71.6953 8.42383C71.6953 8.49805 71.7077 8.57227 71.7324 8.64648C71.7819 8.69596 71.8314 8.74544 71.8809 8.79492C71.9551 8.81966 72.0169 8.86914 72.0664 8.94336C72.1159 8.99284 72.1283 9.05469 72.1035 9.12891C72.1035 9.20312 72.1159 9.27734 72.1406 9.35156C72.1901 9.42578 72.2272 9.48763 72.252 9.53711C72.3014 9.58659 72.3385 9.63607 72.3633 9.68555C72.4128 9.73503 72.4251 9.80924 72.4004 9.9082C72.4004 9.98242 72.4128 10.1061 72.4375 10.2793C72.487 10.4277 72.5612 10.6133 72.6602 10.8359C72.7839 11.0586 72.8457 11.3431 72.8457 11.6895C72.8457 12.0111 72.7962 12.3698 72.6973 12.7656C72.5983 13.1367 72.5241 13.5078 72.4746 13.8789C72.3262 14.0026 72.2396 14.151 72.2148 14.3242C72.2148 14.4974 72.1777 14.6335 72.1035 14.7324C72.0293 14.8314 71.9427 14.9056 71.8438 14.9551C71.7695 15.0046 71.7077 15.0664 71.6582 15.1406C71.6087 15.1901 71.5716 15.2643 71.5469 15.3633C71.5221 15.4375 71.485 15.4993 71.4355 15.5488L71.2871 15.623C71.2129 15.7715 71.1387 15.9199 71.0645 16.0684C70.9902 16.1921 70.9284 16.3158 70.8789 16.4395C70.7057 16.5879 70.5202 16.724 70.3223 16.8477C70.1491 16.9466 69.9759 17.0703 69.8027 17.2188C69.6296 17.3424 69.4688 17.4785 69.3203 17.627C69.1719 17.7507 69.0234 17.862 68.875 17.9609C68.7266 18.0352 68.6029 18.0723 68.5039 18.0723C68.4297 18.0723 68.3307 18.097 68.207 18.1465C68.0833 18.196 67.9596 18.2826 67.8359 18.4062C67.7122 18.5299 67.5885 18.6536 67.4648 18.7773H67.2051C66.9329 18.7773 66.735 18.8145 66.6113 18.8887C66.6608 18.9629 66.7845 19.099 66.9824 19.2969C67.2051 19.4948 67.3783 19.668 67.502 19.8164C67.6504 19.9401 67.7493 20.002 67.7988 20.002C67.873 19.9772 67.9225 19.9772 67.9473 20.002C67.972 20.0514 67.972 20.0885 67.9473 20.1133C67.9473 20.138 67.9844 20.2246 68.0586 20.373C68.1328 20.4967 68.2441 20.6328 68.3926 20.7812C68.541 20.9049 68.7018 21.1029 68.875 21.375C69.0482 21.6471 69.209 21.9811 69.3574 22.377C69.5306 22.7728 69.6667 23.082 69.7656 23.3047C69.8893 23.5273 69.9635 23.6634 69.9883 23.7129C70.0378 23.7376 70.1243 23.8737 70.248 24.1211C70.3965 24.3685 70.5944 24.8633 70.8418 25.6055C71.1139 26.3477 71.3242 26.9414 71.4727 27.3867C71.6458 27.832 71.7819 28.2155 71.8809 28.5371C71.9798 28.834 72.0417 29.069 72.0664 29.2422C72.0911 29.4154 72.1283 29.5762 72.1777 29.7246L72.3262 29.7988C72.3757 29.873 72.4128 30.0462 72.4375 30.3184C72.4622 30.5905 72.4993 30.7884 72.5488 30.9121L72.6602 30.9492C72.6849 31.0234 72.6973 31.1595 72.6973 31.3574C72.6973 31.5553 72.7344 31.7038 72.8086 31.8027C72.9076 31.877 72.9818 31.9883 73.0312 32.1367C73.0807 32.2604 73.1055 32.3717 73.1055 32.4707C73.1302 32.5697 73.1673 32.6934 73.2168 32.8418C73.291 32.9902 73.39 33.151 73.5137 33.3242C73.6621 33.5221 73.7363 33.7324 73.7363 33.9551L74.4043 34.8828C74.4538 34.957 74.4909 35.0312 74.5156 35.1055C74.5651 35.2044 74.6517 35.3405 74.7754 35.5137C74.8991 35.6868 75.1465 35.8724 75.5176 36.0703C75.9134 36.293 76.2227 36.4043 76.4453 36.4043C76.6927 36.4043 76.8659 36.3796 76.9648 36.3301C77.0638 36.2806 77.2617 36.2064 77.5586 36.1074C77.8802 36.0085 78.1895 35.7858 78.4863 35.4395C78.5605 35.2168 78.6719 35.0312 78.8203 34.8828C78.9688 34.7344 79.043 34.5736 79.043 34.4004L78.9316 33.8809V33.8066C78.9811 33.7572 79.0059 33.7201 79.0059 33.6953L78.8203 33.2129C78.8203 33.1882 78.8451 33.1139 78.8945 32.9902C78.7708 32.8171 78.6595 32.6562 78.5605 32.5078C78.4616 32.3594 78.2884 32.2604 78.041 32.2109L78.0781 32.1738C78.0781 32.0749 78.0163 32.0378 77.8926 32.0625C77.7689 32.0625 77.707 32.013 77.707 31.9141C77.6576 31.9883 77.6081 32.0254 77.5586 32.0254H77.373C77.2246 32.0254 77.0885 32.1491 76.9648 32.3965C76.8411 32.6439 76.6432 32.7676 76.3711 32.7676ZM70.1738 13.0254C70.0996 12.9759 70.0625 12.7409 70.0625 12.3203C70.0625 11.875 70.112 11.5534 70.2109 11.3555C70.0872 11.2812 70.0254 11.1699 70.0254 11.0215L69.7656 9.94531C69.7656 9.87109 69.778 9.80924 69.8027 9.75977C69.6543 9.56185 69.543 9.35156 69.4688 9.12891C69.4193 8.90625 69.3451 8.69596 69.2461 8.49805C69.1471 8.42383 69.0605 8.34961 68.9863 8.27539C68.9121 8.20117 68.8008 8.13932 68.6523 8.08984C68.6523 7.66927 68.4792 7.3724 68.1328 7.19922C67.9844 7.125 67.8236 7.06315 67.6504 7.01367C67.4772 6.93945 67.3164 6.85286 67.168 6.75391C67.069 6.77865 66.9206 6.79102 66.7227 6.79102C66.5247 6.79102 66.3145 6.74154 66.0918 6.64258C65.8939 6.51888 65.5228 6.45703 64.9785 6.45703C64.4342 6.45703 63.8034 6.53125 63.0859 6.67969C62.3685 6.82812 61.651 6.92708 60.9336 6.97656C60.8594 7.22396 60.7728 7.47135 60.6738 7.71875C60.5996 7.94141 60.5625 8.10221 60.5625 8.20117C60.3893 8.44857 60.3027 8.86914 60.3027 9.46289L60.1543 12.0605L60.3398 13.248L60.2656 14.0273C60.2656 15.0417 60.3027 15.8086 60.377 16.3281C60.4759 16.8477 60.5254 17.1816 60.5254 17.3301L60.4512 18.0352C60.4512 18.0846 60.4759 18.2454 60.5254 18.5176C60.5996 18.7897 60.6615 18.9382 60.7109 18.9629L61.0078 19C61.2057 19 61.3913 18.9629 61.5645 18.8887C61.7376 18.8145 62.0345 18.7279 62.4551 18.6289C62.8757 18.5299 63.3086 18.4805 63.7539 18.4805C64.224 18.4805 64.5579 18.5052 64.7559 18.5547C65.0527 18.3073 65.3991 18.1465 65.7949 18.0723C66.3887 17.998 66.8835 17.763 67.2793 17.3672C67.4277 17.1693 67.638 17.0085 67.9102 16.8848C67.9596 16.8353 67.9844 16.7858 67.9844 16.7363C67.9844 16.6868 68.0091 16.6374 68.0586 16.5879C68.1081 16.5384 68.1576 16.5137 68.207 16.5137C68.2565 16.5137 68.3431 16.4766 68.4668 16.4023C68.5905 16.3034 68.7637 16.0807 68.9863 15.7344C69.2337 15.3633 69.4069 15.0664 69.5059 14.8438L69.6543 14.4727C69.877 14.349 69.9759 14.1882 69.9512 13.9902C69.9264 13.7923 69.9141 13.6439 69.9141 13.5449L70.1738 13.0254ZM96.5586 3.19141C97.0781 3.19141 97.3379 3.32747 97.3379 3.59961C97.3379 3.77279 97.2884 3.92122 97.1895 4.04492L96.7812 4.41602C96.6328 4.56445 96.472 4.63867 96.2988 4.63867C96.1504 4.63867 96.0514 4.61393 96.002 4.56445C95.9525 4.49023 95.8783 4.42839 95.7793 4.37891C95.5566 4.5026 95.3216 4.60156 95.0742 4.67578C94.8268 4.72526 94.6042 4.82422 94.4062 4.97266C94.2826 5.24479 94.2207 5.54167 94.2207 5.86328C94.2454 6.16016 94.2331 6.40755 94.1836 6.60547C94.1589 6.77865 94.097 6.93945 93.998 7.08789C93.8991 7.21159 93.8496 7.28581 93.8496 7.31055C93.8496 7.33529 93.862 7.58268 93.8867 8.05273C93.9115 8.52279 93.8496 8.90625 93.7012 9.20312C93.5775 9.47526 93.5156 9.72266 93.5156 9.94531L93.627 10.7617V10.873L93.7754 11.0215V11.0586L93.5527 12.3945L93.627 12.6543L93.5156 13.0625C93.4661 13.3346 93.4414 13.5944 93.4414 13.8418V14.6582C93.4414 14.9798 93.3919 15.2643 93.293 15.5117C93.194 15.7344 93.1445 15.9447 93.1445 16.1426L93.2188 17.1816V17.5898C93.2188 17.7383 93.194 17.8496 93.1445 17.9238C93.0951 17.998 93.0703 18.0599 93.0703 18.1094L93.1445 18.1836C93.0951 18.431 93.0703 18.6165 93.0703 18.7402L93.1445 19.2598L92.9219 20.9668L92.9961 21.3008L92.9219 21.5977L93.1445 22.1914C93.1198 22.2161 93.1074 22.3646 93.1074 22.6367C93.1074 22.8841 93.0703 23.0449 92.9961 23.1191C93.0703 23.3418 93.1074 23.5645 93.1074 23.7871L93.0332 25.0117C93.0332 25.2344 93.0456 25.3952 93.0703 25.4941C93.0208 25.5931 92.9961 25.6797 92.9961 25.7539L93.1445 26.125L92.959 26.3848C93.0332 26.5827 93.1074 26.7806 93.1816 26.9785C93.2559 27.1764 93.3177 27.3743 93.3672 27.5723C93.1198 27.7702 92.9714 27.9928 92.9219 28.2402C92.8971 28.2155 92.8353 28.2031 92.7363 28.2031C92.6374 28.2031 92.526 28.2526 92.4023 28.3516C92.2786 28.4505 92.1426 28.5 91.9941 28.5L91.957 28.4629C91.7591 28.4382 91.5983 28.2897 91.4746 28.0176C91.3509 27.7454 91.2148 27.5228 91.0664 27.3496C90.9427 27.1517 90.8314 26.9043 90.7324 26.6074C90.6087 26.4342 90.4603 26.2487 90.2871 26.0508C90.1387 25.8281 90.0645 25.6178 90.0645 25.4199C89.8665 25.3704 89.7428 25.2467 89.6934 25.0488C89.6686 24.8262 89.6068 24.653 89.5078 24.5293C89.3346 24.5046 89.2852 24.4056 89.3594 24.2324C89.2852 24.1582 89.1986 24.1211 89.0996 24.1211C89.0254 24.0964 88.9388 23.9974 88.8398 23.8242C88.7656 23.651 88.6914 23.5397 88.6172 23.4902C88.543 23.416 88.4811 23.3418 88.4316 23.2676C88.3822 23.1686 88.3574 23.0944 88.3574 23.0449C88.3822 22.9954 88.3203 22.8717 88.1719 22.6738C88.0482 22.4759 87.875 22.2904 87.6523 22.1172C87.4792 21.9193 87.3555 21.6966 87.2812 21.4492C87.2318 21.2018 87.0462 20.9668 86.7246 20.7441C86.6751 20.472 86.5391 20.237 86.3164 20.0391C86.0938 19.8164 86.0072 19.5566 86.0566 19.2598C85.8092 19.0618 85.6608 18.9134 85.6113 18.8145C85.5618 18.6908 85.5124 18.5918 85.4629 18.5176C85.4134 18.4434 85.3516 18.3568 85.2773 18.2578C85.2279 18.1589 85.1784 18.0723 85.1289 17.998C85.0794 17.9238 85.0547 17.862 85.0547 17.8125C85.0547 17.763 85.0794 17.7135 85.1289 17.6641C85.1042 17.6146 85.0794 17.5775 85.0547 17.5527C85.0299 17.5033 84.9928 17.4414 84.9434 17.3672C84.9186 17.293 84.8815 17.2311 84.832 17.1816C84.7826 17.1322 84.7331 17.0827 84.6836 17.0332C84.6589 16.959 84.6465 16.8971 84.6465 16.8477C84.6712 16.7982 84.6589 16.7487 84.6094 16.6992C84.4362 16.625 84.3249 16.4766 84.2754 16.2539C84.2259 16.0065 84.1393 15.8086 84.0156 15.6602C83.8919 15.3385 83.7435 15.054 83.5703 14.8066C83.4219 14.5345 83.3229 14.2871 83.2734 14.0645C83.224 13.8418 83.1745 13.7305 83.125 13.7305C83.1003 13.7305 83.0632 13.7057 83.0137 13.6562C82.9642 13.6068 82.9518 13.5573 82.9766 13.5078C83.0013 13.4583 82.9766 13.4089 82.9023 13.3594C82.8281 13.2357 82.7292 13.1491 82.6055 13.0996C82.5065 13.0254 82.4076 12.9017 82.3086 12.7285C82.2096 12.5553 82.123 12.3451 82.0488 12.0977C81.9746 11.8503 81.7891 11.7142 81.4922 11.6895C81.3932 11.7637 81.3438 11.8626 81.3438 11.9863L81.5664 12.8027L81.4922 13.7676L81.7148 15.6602L81.6406 16.3652L81.8262 17.1074L81.752 17.4414C81.752 17.9857 81.8138 18.4928 81.9375 18.9629C82.1107 19.5814 82.1973 20.3359 82.1973 21.2266V23.2676L82.2715 23.75L82.2344 24.6035L82.3828 30.0586C82.3828 30.6523 82.6178 30.9492 83.0879 30.9492L83.793 30.8379C84.2135 30.8379 84.4238 31.0358 84.4238 31.4316C84.4238 31.5553 84.3372 31.6914 84.1641 31.8398C83.9167 32.0625 83.7064 32.1738 83.5332 32.1738H83.3105L82.123 32.0996C81.3809 32.0996 80.8242 32.248 80.4531 32.5449C80.3789 32.5697 80.3047 32.5697 80.2305 32.5449C80.1562 32.5449 80.082 32.5449 80.0078 32.5449L79.3027 32.6934L77.9668 32.8789C77.6204 32.8789 77.4473 32.7428 77.4473 32.4707C77.4473 32.3717 77.4967 32.2604 77.5957 32.1367C77.6947 32.013 77.7936 31.9512 77.8926 31.9512L78.1152 31.9883C78.1647 31.9883 78.2142 31.9759 78.2637 31.9512C78.3132 31.9017 78.3997 31.8522 78.5234 31.8027C78.6471 31.7533 78.8079 31.7161 79.0059 31.6914C79.2285 31.6419 79.4388 31.5801 79.6367 31.5059C79.8346 31.3574 80.0078 31.1966 80.1562 31.0234C80.0573 30.5534 80.0078 30.0339 80.0078 29.4648L80.082 28.6484C80.082 28.6237 80.0573 28.5742 80.0078 28.5C79.9831 28.4258 79.9583 28.2897 79.9336 28.0918C79.9089 27.8939 79.8841 27.6836 79.8594 27.4609C79.8594 27.2383 79.847 27.0156 79.8223 26.793C79.7975 26.5703 79.7852 26.4219 79.7852 26.3477L79.8965 25.2715L79.7852 23.4902C79.7852 23.1191 79.7975 22.748 79.8223 22.377C79.8717 22.0059 79.8594 21.6471 79.7852 21.3008L79.6367 19.4824C79.612 19.3835 79.5872 19.2969 79.5625 19.2227C79.5378 19.1484 79.5254 19.0495 79.5254 18.9258L79.5625 18.0723L79.4141 16.9219L79.4883 16.4395L79.3398 15.4004L79.4141 14.6582L79.2656 11.2812L79.1543 8.05273V7.38477C79.1543 7.18685 79.1667 6.98893 79.1914 6.79102C79.2409 6.74154 79.2656 6.69206 79.2656 6.64258L79.1914 6.49414C79.1914 6.39518 79.2285 6.25911 79.3027 6.08594C79.377 5.88802 79.3893 5.66536 79.3398 5.41797C79.3151 5.14583 79.4264 4.98503 79.6738 4.93555C79.7233 4.93555 79.7357 4.8737 79.7109 4.75C79.7604 4.72526 79.9212 4.71289 80.1934 4.71289C80.6387 4.71289 80.985 5.1582 81.2324 6.04883C81.3314 6.17253 81.5293 6.3457 81.8262 6.56836C81.8509 6.81576 81.9375 7.03841 82.0859 7.23633C82.2344 7.40951 82.3457 7.58268 82.4199 7.75586C82.5189 7.92904 82.5807 8.0651 82.6055 8.16406C82.6549 8.26302 82.7044 8.36198 82.7539 8.46094L83.1621 8.98047C83.2116 9.07943 83.2363 9.17839 83.2363 9.27734C83.2363 9.3763 83.2611 9.5 83.3105 9.64844C83.3848 9.77214 83.4961 9.95768 83.6445 10.2051C83.8177 10.4525 83.9538 10.6751 84.0527 10.873C84.1517 11.0462 84.2383 11.2194 84.3125 11.3926C84.3867 11.6152 84.498 11.8379 84.6465 12.0605C84.8197 12.2832 84.9062 12.4564 84.9062 12.5801C84.9062 12.679 84.9434 12.8027 85.0176 12.9512C85.0918 13.0749 85.1908 13.2233 85.3145 13.3965C85.4382 13.5449 85.5247 13.681 85.5742 13.8047C85.6484 13.9284 85.6855 14.0397 85.6855 14.1387C85.6855 14.2129 85.6979 14.2747 85.7227 14.3242C85.7721 14.349 85.8092 14.3737 85.834 14.3984C85.8587 14.3984 85.8835 14.4232 85.9082 14.4727C85.9577 14.5221 85.9824 14.584 85.9824 14.6582C85.9824 14.7324 86.0072 14.8066 86.0566 14.8809L86.2051 14.9551C86.2546 15.054 86.3164 15.252 86.3906 15.5488C86.4896 15.821 86.6257 16.0807 86.7988 16.3281C86.9967 16.5508 87.1699 16.8477 87.3184 17.2188C87.4915 17.5898 87.6647 17.8867 87.8379 18.1094L88.0977 18.5176C88.1471 18.6165 88.1842 18.7155 88.209 18.8145C88.2337 18.9134 88.2708 19 88.3203 19.0742L88.6172 19.4082C88.6914 19.5319 88.7409 19.6556 88.7656 19.7793C88.8151 19.903 88.877 20.0143 88.9512 20.1133L89.0996 20.1875C89.1491 20.2865 89.2604 20.472 89.4336 20.7441C89.6068 21.0163 89.8294 21.3874 90.1016 21.8574C90.3737 22.3027 90.5964 22.6243 90.7695 22.8223C90.9674 23.0202 91.1035 23.2428 91.1777 23.4902C91.2767 23.7129 91.4499 23.8613 91.6973 23.9355C91.821 23.8861 91.8704 23.8118 91.8457 23.7129C91.821 23.5892 91.8086 23.4779 91.8086 23.3789L91.8828 22.377L91.8086 19.8906C91.8086 19.5443 91.8333 19.2103 91.8828 18.8887C91.957 18.5671 92.0065 18.2826 92.0312 18.0352C92.056 17.7878 92.056 17.5898 92.0312 17.4414C92.0312 17.293 92.0312 17.1445 92.0312 16.9961L92.1797 16.1426V15.5488L92.3281 14.6211L92.2539 13.5078C92.2539 12.9635 92.2786 12.4193 92.3281 11.875C92.3776 11.875 92.4023 11.8626 92.4023 11.8379L92.3281 10.9102L92.4023 9.64844L92.3652 8.49805C92.3652 8.10221 92.4023 7.71875 92.4766 7.34766C92.5755 6.95182 92.6374 6.61784 92.6621 6.3457C92.7116 6.07357 92.7487 5.90039 92.7734 5.82617C92.8229 5.72721 92.8477 5.64062 92.8477 5.56641C92.8477 5.46745 92.8229 5.39323 92.7734 5.34375L92.959 4.75C92.959 4.45312 92.8848 4.27995 92.7363 4.23047C92.5879 4.15625 92.4395 4.0944 92.291 4.04492C92.1673 3.99544 92.0807 3.94596 92.0312 3.89648C91.9818 3.84701 91.8952 3.83464 91.7715 3.85938C91.6725 3.88411 91.5736 3.89648 91.4746 3.89648C91.3757 3.89648 91.3014 3.83464 91.252 3.71094C91.252 3.61198 91.2025 3.55013 91.1035 3.52539C91.1283 3.30273 91.2272 3.1543 91.4004 3.08008C91.5736 3.00586 91.7096 2.89453 91.8086 2.74609C91.957 2.79557 92.0931 2.82031 92.2168 2.82031L92.8477 2.67188C93.0456 2.67188 93.2188 2.72135 93.3672 2.82031C93.5156 2.91927 93.6517 2.99349 93.7754 3.04297C93.9238 3.09245 94.0475 3.11719 94.1465 3.11719C94.2702 3.09245 94.3939 3.08008 94.5176 3.08008H94.666L94.7031 3.1543L94.8887 3.11719L95.5938 3.22852L96.5586 3.19141ZM101.717 6.64258L101.828 5.97461C101.803 5.77669 101.828 5.60352 101.902 5.45508C102.001 5.2819 102.063 5.1582 102.088 5.08398C102.113 4.98503 102.113 4.91081 102.088 4.86133C102.088 4.78711 102.088 4.72526 102.088 4.67578L102.236 4.26758L102.162 3.5625C102.162 2.59766 102.236 1.91732 102.385 1.52148C102.533 1.12565 102.607 0.828776 102.607 0.630859C102.731 0.556641 102.855 0.470052 102.979 0.371094C103.102 0.247396 103.238 0.160807 103.387 0.111328C103.51 0.160807 103.622 0.210286 103.721 0.259766C103.82 0.284505 103.931 0.358724 104.055 0.482422C104.203 0.60612 104.352 0.902995 104.5 1.37305C104.648 1.81836 104.797 2.30078 104.945 2.82031C105.118 3.33984 105.279 3.85938 105.428 4.37891C105.601 4.8737 105.799 5.24479 106.021 5.49219C106.021 6.16016 106.133 6.63021 106.355 6.90234C106.331 6.95182 106.318 7.02604 106.318 7.125C106.318 7.19922 106.355 7.40951 106.43 7.75586C106.826 9.51237 107.122 10.4896 107.32 10.6875V10.9102L107.766 12.5059C107.84 12.8027 107.902 13.0996 107.951 13.3965C108.001 13.6686 108.137 13.916 108.359 14.1387C108.359 14.584 108.483 14.9427 108.73 15.2148C108.78 15.487 108.829 15.821 108.879 16.2168C108.953 16.6126 109.089 16.9095 109.287 17.1074C109.411 18.1217 109.572 18.765 109.77 19.0371C109.992 19.2845 110.091 19.5072 110.066 19.7051C109.992 19.9772 110.042 20.2617 110.215 20.5586C110.388 20.8555 110.475 21.0905 110.475 21.2637C110.499 21.4368 110.574 21.5853 110.697 21.709C110.969 21.709 111.204 21.5977 111.402 21.375C111.625 21.1523 111.761 20.9049 111.811 20.6328C111.885 20.6328 112.021 20.4967 112.219 20.2246C113.233 18.6413 113.889 17.7754 114.186 17.627C114.235 17.3548 114.334 17.1569 114.482 17.0332C114.656 16.8848 114.73 16.6745 114.705 16.4023C114.804 16.3281 114.878 16.2539 114.928 16.1797C115.002 16.0807 115.101 16.0065 115.225 15.957C115.398 15.4375 115.658 15.0664 116.004 14.8438C116.029 14.7695 116.041 14.6953 116.041 14.6211C116.066 14.5221 116.103 14.4355 116.152 14.3613C116.301 14.3118 116.4 14.2376 116.449 14.1387C116.523 14.015 116.622 13.9284 116.746 13.8789V13.8418C116.746 13.6934 116.808 13.582 116.932 13.5078C117.08 13.4089 117.179 13.3099 117.229 13.2109C117.303 13.0872 117.365 12.9017 117.414 12.6543C117.488 12.4069 117.575 12.2585 117.674 12.209L117.859 12.1348C118.033 11.9368 118.156 11.7018 118.23 11.4297C118.329 11.1328 118.49 10.8854 118.713 10.6875V10.4648H118.861C118.911 10.4154 118.936 10.3288 118.936 10.2051C118.96 10.0814 119.035 10.0072 119.158 9.98242L119.121 9.9082C119.121 9.56185 119.22 9.28971 119.418 9.0918C119.616 8.86914 119.702 8.5599 119.678 8.16406L119.975 7.94141C120.024 7.89193 120.049 7.83008 120.049 7.75586C120.049 7.6569 120.061 7.58268 120.086 7.5332L120.457 6.97656C120.581 6.77865 120.68 6.56836 120.754 6.3457C120.828 6.09831 120.977 5.91276 121.199 5.78906V5.64062C121.199 5.44271 121.261 5.25716 121.385 5.08398C121.533 4.88607 121.632 4.72526 121.682 4.60156C121.731 4.45312 121.756 4.32943 121.756 4.23047C121.781 4.10677 121.805 4.02018 121.83 3.9707C121.88 3.92122 121.917 3.89648 121.941 3.89648C122.09 3.89648 122.139 3.8099 122.09 3.63672C122.04 3.46354 122.077 3.37695 122.201 3.37695C122.35 3.37695 122.424 3.3151 122.424 3.19141L122.572 2.18945C122.572 2.04102 122.56 1.92969 122.535 1.85547C122.684 1.75651 122.758 1.64518 122.758 1.52148C122.758 1.39779 122.733 1.3112 122.684 1.26172C122.708 1.16276 122.758 1.10091 122.832 1.07617C122.906 1.02669 122.968 0.977214 123.018 0.927734V0.779297C123.018 0.58138 123.092 0.432943 123.24 0.333984C123.413 0.210286 123.562 0.0989583 123.686 0C123.859 0.0247396 123.995 0.0989583 124.094 0.222656C124.193 0.321615 124.304 0.432943 124.428 0.556641C124.304 0.705078 124.242 0.977214 124.242 1.37305C124.242 1.74414 124.193 2.04102 124.094 2.26367C124.02 2.48633 123.982 2.69661 123.982 2.89453C123.982 3.09245 124.02 3.26562 124.094 3.41406C124.168 3.53776 124.205 3.66146 124.205 3.78516L124.131 4.3418L124.205 5.49219C124.205 5.71484 124.18 5.88802 124.131 6.01172C124.156 6.16016 124.193 6.29622 124.242 6.41992C124.292 6.51888 124.329 6.64258 124.354 6.79102C124.378 6.91471 124.378 7.05078 124.354 7.19922C124.354 7.32292 124.354 7.44661 124.354 7.57031L124.576 8.27539C124.576 8.32487 124.564 8.34961 124.539 8.34961C124.514 8.34961 124.502 8.39909 124.502 8.49805C124.502 8.59701 124.551 8.85677 124.65 9.27734C124.774 9.67318 124.836 10.0443 124.836 10.3906V10.4648L124.762 10.502L124.873 10.9102L124.762 11.4297L124.984 12.1719L124.91 13.0254C124.91 13.0996 124.96 13.3841 125.059 13.8789L125.021 14.4355C125.021 14.6829 125.059 14.8685 125.133 14.9922C125.232 15.0911 125.306 15.2396 125.355 15.4375L125.43 16.2539C125.454 16.3776 125.479 16.5013 125.504 16.625C125.529 16.724 125.553 16.86 125.578 17.0332C125.603 17.1816 125.603 17.3548 125.578 17.5527C125.553 17.7259 125.541 17.9486 125.541 18.2207C125.541 18.4928 125.603 18.8763 125.727 19.3711C125.801 20.4102 125.912 21.2389 126.061 21.8574C126.234 22.4512 126.32 22.8717 126.32 23.1191C126.32 23.3418 126.271 23.5397 126.172 23.7129C126.395 24.1087 126.493 24.5664 126.469 25.0859C126.469 25.6055 126.493 26.0137 126.543 26.3105C126.617 26.5827 126.679 26.793 126.729 26.9414C126.778 27.0651 126.803 27.2383 126.803 27.4609C126.803 27.6589 126.84 27.9062 126.914 28.2031C127.013 28.4753 127.075 28.7474 127.1 29.0195L127.396 29.0566C127.792 29.0566 128.139 29.0072 128.436 28.9082C128.757 28.8092 128.967 28.7227 129.066 28.6484C129.165 28.5742 129.277 28.5495 129.4 28.5742C129.524 28.5742 129.623 28.5742 129.697 28.5742L130.18 28.5C130.303 28.5 130.39 28.5495 130.439 28.6484C130.489 28.7227 130.576 28.7721 130.699 28.7969C130.749 28.8464 130.773 28.9453 130.773 29.0938C130.773 29.2174 130.749 29.3535 130.699 29.502C130.477 29.6504 130.303 29.7246 130.18 29.7246C130.081 29.7246 130.007 29.6999 129.957 29.6504C129.71 29.873 129.536 29.9967 129.438 30.0215C129.363 30.0215 129.19 30.0215 128.918 30.0215L128.77 30.0586C128.596 30.0586 128.423 30.0957 128.25 30.1699C128.102 30.2441 127.941 30.2936 127.768 30.3184L127.174 30.3926C126.951 30.4668 126.741 30.5781 126.543 30.7266C126.345 30.8503 126.122 30.9121 125.875 30.9121L125.059 30.8379C124.91 30.8379 124.65 30.9121 124.279 31.0605L123.834 31.0234C123.636 31.0234 123.426 31.0729 123.203 31.1719C123.005 31.2708 122.783 31.3203 122.535 31.3203H122.35C122.102 31.1224 121.979 30.9121 121.979 30.6895C121.979 30.4668 122.003 30.2812 122.053 30.1328C122.201 30.0091 122.609 29.8978 123.277 29.7988C123.97 29.6999 124.428 29.5762 124.65 29.4277C124.601 29.2546 124.576 29.0938 124.576 28.9453C124.601 28.7721 124.589 28.5866 124.539 28.3887C124.514 28.1908 124.49 28.0794 124.465 28.0547C124.44 28.0052 124.428 27.8815 124.428 27.6836C124.428 27.4857 124.378 27.2754 124.279 27.0527C124.205 26.8301 124.143 26.6074 124.094 26.3848C124.044 26.1374 124.02 25.8652 124.02 25.5684C124.044 25.2467 124.044 24.9375 124.02 24.6406L123.871 23.7129L123.945 23.4531C123.945 23.181 123.883 22.847 123.76 22.4512C123.661 22.0553 123.587 21.7708 123.537 21.5977C123.512 21.3997 123.512 21.2637 123.537 21.1895C123.562 21.0905 123.574 20.9915 123.574 20.8926C123.574 20.7936 123.537 20.707 123.463 20.6328C123.512 20.5339 123.537 20.4349 123.537 20.3359C123.537 20.2122 123.562 20.1133 123.611 20.0391C123.463 19.4206 123.376 18.8021 123.352 18.1836C123.352 17.5404 123.314 16.9219 123.24 16.3281L123.092 15.8828C123.067 15.7839 123.055 15.6849 123.055 15.5859C123.079 15.4622 123.092 15.3509 123.092 15.252L122.943 14.584L123.018 14.2871V13.9531C123.018 13.2852 122.956 12.9141 122.832 12.8398C122.906 12.7656 122.919 12.6543 122.869 12.5059C122.844 12.3327 122.869 12.209 122.943 12.1348C122.869 11.9616 122.832 11.7637 122.832 11.541L122.869 10.502C122.869 10.3288 122.832 10.069 122.758 9.72266C122.708 9.35156 122.684 9.11654 122.684 9.01758C122.708 8.91862 122.708 8.79492 122.684 8.64648L122.424 8.16406V7.71875C122.424 7.49609 122.374 7.34766 122.275 7.27344H122.238C122.09 7.2487 121.941 7.38477 121.793 7.68164C121.447 7.87956 121.273 8.07747 121.273 8.27539C121.273 8.47331 121.236 8.57227 121.162 8.57227C121.088 8.57227 121.026 8.59701 120.977 8.64648C120.927 8.69596 120.915 8.74544 120.939 8.79492C120.964 8.8444 120.927 8.94336 120.828 9.0918C120.729 9.21549 120.667 9.33919 120.643 9.46289C120.618 9.56185 120.581 9.66081 120.531 9.75977C120.482 9.83398 120.42 9.9082 120.346 9.98242C120.296 10.0319 120.247 10.0938 120.197 10.168C120.173 10.2422 120.16 10.3288 120.16 10.4277C120.185 10.5267 120.197 10.6257 120.197 10.7246C120.197 10.8236 120.123 10.972 119.975 11.1699C119.826 11.3678 119.727 11.5534 119.678 11.7266C119.604 11.7513 119.542 11.7884 119.492 11.8379C119.467 11.8626 119.393 11.875 119.27 11.875C119.22 12.2708 119.096 12.5801 118.898 12.8027C118.701 13.0254 118.515 13.2975 118.342 13.6191C118.218 13.7181 118.057 13.8047 117.859 13.8789C117.835 13.9531 117.785 14.0645 117.711 14.2129C117.661 14.3366 117.575 14.5221 117.451 14.7695C117.352 14.9922 117.327 15.1654 117.377 15.2891C117.352 15.3385 117.315 15.3633 117.266 15.3633C117.216 15.3633 117.167 15.388 117.117 15.4375C117.068 15.487 117.043 15.5612 117.043 15.6602C117.043 15.7344 116.969 15.7962 116.82 15.8457C116.548 15.9694 116.424 16.1055 116.449 16.2539C116.499 16.4023 116.462 16.5632 116.338 16.7363C116.264 17.0579 116.115 17.3053 115.893 17.4785C115.67 17.627 115.521 17.7507 115.447 17.8496C115.398 17.9486 115.361 18.0475 115.336 18.1465C115.311 18.2207 115.274 18.3073 115.225 18.4062L115.076 18.4805C114.73 19.1732 114.52 19.5566 114.445 19.6309C114.346 19.7298 114.124 20.0391 113.777 20.5586L113.369 21.1895C113.245 21.3626 113.184 21.4616 113.184 21.4863C112.615 21.6595 112.268 22.1172 112.145 22.8594C111.848 23.0326 111.637 23.181 111.514 23.3047C111.019 24.3685 110.561 24.9004 110.141 24.9004C109.868 24.9004 109.671 24.8509 109.547 24.752C109.448 24.6283 109.312 24.5417 109.139 24.4922C108.99 24.0716 108.854 23.8118 108.73 23.7129V23.416C108.73 23.0944 108.693 22.8841 108.619 22.7852C108.545 22.6862 108.458 22.5007 108.359 22.2285L107.988 20.373C107.964 20.2493 107.902 20.1628 107.803 20.1133C107.704 20.0391 107.642 19.8659 107.617 19.5938C107.592 19.2969 107.518 19.1113 107.395 19.0371L107.432 18.8145C107.432 18.5671 107.308 18.1589 107.061 17.5898C106.838 17.0208 106.677 16.7116 106.578 16.6621C106.603 16.6374 106.615 16.5508 106.615 16.4023C106.615 16.2539 106.566 15.9694 106.467 15.5488C106.368 15.1035 106.269 14.7819 106.17 14.584C106.071 14.3861 106.009 14.1758 105.984 13.9531C105.96 13.7305 105.91 13.4954 105.836 13.248C105.762 13.0007 105.725 12.8027 105.725 12.6543V12.6172L105.576 12.4316L105.502 11.9121C105.477 11.7884 105.44 11.6523 105.391 11.5039C105.341 11.3555 105.292 11.207 105.242 11.0586L105.168 10.5391C105.094 10.3906 105.007 10.2546 104.908 10.1309C104.809 9.98242 104.71 9.83398 104.611 9.68555C104.611 9.48763 104.611 9.28971 104.611 9.0918C104.611 8.89388 104.549 8.7207 104.426 8.57227V8.27539C104.426 7.7806 104.277 7.5332 103.98 7.5332C103.906 7.5332 103.869 7.60742 103.869 7.75586C103.894 7.87956 103.906 7.96615 103.906 8.01562V8.08984C103.807 8.16406 103.758 8.33724 103.758 8.60938C103.758 8.85677 103.832 9.02995 103.98 9.12891C103.857 9.42578 103.795 9.78451 103.795 10.2051C103.82 10.6257 103.807 11.0091 103.758 11.3555L103.684 11.875L103.758 12.2461L103.609 12.9141L103.684 13.6934V14.2129C103.684 14.3861 103.659 14.5469 103.609 14.6953L103.461 15.1406C103.411 15.3633 103.399 15.5983 103.424 15.8457C103.449 16.0684 103.436 16.2786 103.387 16.4766C103.337 16.6497 103.312 16.7611 103.312 16.8105C103.263 17.0085 103.238 17.1569 103.238 17.2559V17.5898C103.238 17.8125 103.201 18.0352 103.127 18.2578C103.077 18.4805 103.04 18.7155 103.016 18.9629C102.991 19.1855 102.979 19.4082 102.979 19.6309C103.003 19.8535 102.991 20.0638 102.941 20.2617C102.917 20.4349 102.892 20.5586 102.867 20.6328C102.867 20.707 102.855 20.7812 102.83 20.8555C102.83 20.9049 102.83 20.9668 102.83 21.041V21.4121L102.682 22.1543C102.632 22.3027 102.607 22.4512 102.607 22.5996C102.632 22.748 102.645 22.946 102.645 23.1934C102.645 23.416 102.62 23.5892 102.57 23.7129C102.372 24.0345 102.286 24.3809 102.311 24.752C102.36 25.123 102.335 25.4818 102.236 25.8281C102.137 26.1497 102.088 26.5827 102.088 27.127C102.088 27.6712 102.026 28.2526 101.902 28.8711C102.224 29.2422 102.459 29.4277 102.607 29.4277C102.781 29.4277 102.867 29.502 102.867 29.6504C102.867 29.6999 102.917 29.7493 103.016 29.7988C102.991 29.972 102.954 30.0957 102.904 30.1699C102.855 30.2194 102.842 30.3431 102.867 30.541H102.793L102.533 30.6152H102.459C102.434 30.5905 102.397 30.5781 102.348 30.5781L102.236 30.7637C102.137 30.7142 101.952 30.6895 101.68 30.6895C101.432 30.6895 101.271 30.7389 101.197 30.8379C100.999 30.7389 100.74 30.6895 100.418 30.6895C100.121 30.6895 99.9479 30.7513 99.8984 30.875C99.8737 30.974 99.7995 31.0358 99.6758 31.0605C99.651 31.0358 99.6016 31.0234 99.5273 31.0234L97.8574 31.2461H97.1523C96.7318 31.2461 96.4967 31.209 96.4473 31.1348C96.373 31.0358 96.3236 30.974 96.2988 30.9492C96.2741 30.8997 96.2122 30.8626 96.1133 30.8379C96.0885 30.8132 96.0762 30.776 96.0762 30.7266L96.2246 30.4297C96.1504 30.3555 96.1133 30.2936 96.1133 30.2441C96.1133 30.1699 96.138 30.0833 96.1875 29.9844C96.5091 29.7617 96.8555 29.6504 97.2266 29.6504C97.6224 29.6504 97.9935 29.5762 98.3398 29.4277C98.4141 29.4525 98.5378 29.4648 98.7109 29.4648C98.9089 29.4648 99.082 29.4401 99.2305 29.3906C99.3789 29.3411 99.5273 29.2917 99.6758 29.2422C99.7005 29.1432 99.7129 29.0195 99.7129 28.8711L99.6758 28.0547L99.8242 26.9785L99.75 26.4219C99.75 26.2982 99.7747 26.125 99.8242 25.9023C99.8984 25.6549 99.9232 25.457 99.8984 25.3086C99.8984 25.1602 99.9108 25.0117 99.9355 24.8633C99.9603 24.6901 99.985 24.5417 100.01 24.418C100.059 24.2943 100.109 24.1582 100.158 24.0098C100.208 23.8613 100.232 23.5768 100.232 23.1562C100.232 22.7109 100.294 22.278 100.418 21.8574C100.566 21.4121 100.641 20.9792 100.641 20.5586L100.566 20.1133C100.566 20.0391 100.579 19.9896 100.604 19.9648C100.653 19.9401 100.69 19.8411 100.715 19.668C100.74 19.4948 100.752 19.2845 100.752 19.0371C100.777 18.765 100.814 18.4681 100.863 18.1465C100.938 17.8001 100.975 17.5404 100.975 17.3672L100.9 16.959C100.9 16.8353 100.913 16.7116 100.938 16.5879C101.135 16.0436 101.234 15.4746 101.234 14.8809V14.3613C101.234 14.2871 101.222 14.2129 101.197 14.1387C101.346 13.6934 101.42 13.3841 101.42 13.2109V12.6543L101.568 11.9863L101.494 11.5781L101.568 11.1328L101.494 10.6504L101.643 9.98242L101.605 9.05469L101.791 7.75586C101.791 7.70638 101.766 7.6569 101.717 7.60742C101.692 7.55794 101.692 7.52083 101.717 7.49609C101.742 7.44661 101.754 7.38477 101.754 7.31055L101.717 6.64258ZM149.811 11.541C149.811 12.209 149.984 12.6914 150.33 12.9883V13.0996C150.33 13.2975 150.392 13.5697 150.516 13.916C150.664 14.2624 150.738 14.6582 150.738 15.1035C150.738 15.5488 150.837 15.8457 151.035 15.9941C150.986 16.0684 150.924 16.1426 150.85 16.2168C150.775 16.291 150.738 16.3652 150.738 16.4395C150.738 16.5137 150.763 16.5632 150.812 16.5879C150.887 16.5879 150.924 16.625 150.924 16.6992L150.887 16.7734C150.911 16.9714 150.899 17.1569 150.85 17.3301C150.8 17.5033 150.775 17.6764 150.775 17.8496C150.775 17.998 150.788 18.1094 150.812 18.1836L150.516 18.8145C150.54 18.9134 150.553 19.0371 150.553 19.1855C150.553 19.6309 150.33 19.9401 149.885 20.1133C149.91 20.2122 149.922 20.373 149.922 20.5957C149.922 20.8184 149.885 21.0534 149.811 21.3008C149.761 21.5234 149.724 21.7585 149.699 22.0059C149.402 22.1543 149.266 22.3646 149.291 22.6367C149.068 22.7109 148.883 22.847 148.734 23.0449C148.611 23.2181 148.487 23.3665 148.363 23.4902C148.24 23.6139 148.141 23.7005 148.066 23.75C147.992 23.7747 147.918 23.8366 147.844 23.9355C147.77 24.0098 147.708 24.1087 147.658 24.2324C147.584 24.4303 147.473 24.6035 147.324 24.752C147.176 24.8509 147.102 24.9499 147.102 25.0488C147.102 25.123 147.027 25.2591 146.879 25.457C146.73 25.6302 146.471 25.8034 146.1 25.9766C145.753 26.125 145.456 26.3353 145.209 26.6074H145.098L144.689 26.7559C144.615 26.8301 144.541 26.9414 144.467 27.0898C144.343 27.263 144.059 27.3125 143.613 27.2383C143.465 27.3125 143.292 27.4115 143.094 27.5352C142.921 27.6341 142.723 27.6836 142.5 27.6836C142.302 27.6836 142.203 27.7331 142.203 27.832C142.203 27.9062 142.117 27.9434 141.943 27.9434C141.795 27.9434 141.684 27.9681 141.609 28.0176H141.572L141.053 27.8691C140.805 27.9681 140.583 28.0176 140.385 28.0176L139.457 27.7949C139.408 27.7949 139.333 27.8197 139.234 27.8691C139.135 27.7454 139.012 27.6712 138.863 27.6465C138.715 27.6217 138.591 27.5723 138.492 27.498C138.418 27.5228 138.319 27.597 138.195 27.7207H138.121L137.416 27.7578C137.144 27.7578 136.983 27.6712 136.934 27.498C136.686 27.5723 136.377 27.4857 136.006 27.2383C135.66 26.9661 135.462 26.7188 135.412 26.4961H135.301L134.855 26.3477C134.781 26.2487 134.707 26.1621 134.633 26.0879C134.559 25.9889 134.509 25.8776 134.484 25.7539C134.286 25.7044 134.126 25.6178 134.002 25.4941C133.878 25.3457 133.693 25.2715 133.445 25.2715C133.396 25.123 133.309 25.0117 133.186 24.9375C133.087 24.8633 132.988 24.7891 132.889 24.7148C132.74 24.2201 132.443 23.7624 131.998 23.3418C131.528 22.0801 131.219 21.3008 131.07 21.0039C130.947 20.707 130.885 20.5339 130.885 20.4844L130.996 20.1133L130.922 19.9277C130.922 19.8783 130.934 19.8535 130.959 19.8535C130.984 19.8535 130.996 19.8288 130.996 19.7793L130.848 18.9258L130.922 18.3691L130.736 17.9609L130.996 16.9219V16.4766C130.996 16.3529 131.021 16.2415 131.07 16.1426C131.12 16.0189 131.169 15.8581 131.219 15.6602C131.268 15.4375 131.293 15.1777 131.293 14.8809C131.293 14.5592 131.33 14.2747 131.404 14.0273C131.479 13.7552 131.565 13.582 131.664 13.5078C131.788 13.4089 131.825 13.2109 131.775 12.9141C132.072 12.5182 132.27 12.1471 132.369 11.8008C132.493 11.4297 132.555 11.2194 132.555 11.1699C132.555 11.0215 132.592 10.9102 132.666 10.8359C132.79 10.7617 132.839 10.6628 132.814 10.5391C132.814 10.4154 132.852 10.3288 132.926 10.2793C133 10.2298 133.074 10.1556 133.148 10.0566C133.223 9.95768 133.297 9.82161 133.371 9.64844C133.445 9.47526 133.544 9.30208 133.668 9.12891L133.816 9.05469C133.891 8.83203 134.348 8.42383 135.189 7.83008C135.264 7.75586 135.301 7.68164 135.301 7.60742C135.326 7.5332 135.363 7.47135 135.412 7.42188C135.511 7.39714 135.709 7.31055 136.006 7.16211L136.08 7.01367L136.674 6.7168L136.711 6.56836C136.76 6.54362 136.822 6.54362 136.896 6.56836C136.971 6.56836 137.132 6.51888 137.379 6.41992C137.651 6.29622 137.96 6.13542 138.307 5.9375C138.653 5.71484 138.975 5.60352 139.271 5.60352C139.593 5.60352 139.779 5.56641 139.828 5.49219C139.902 5.41797 140.001 5.36849 140.125 5.34375C140.273 5.29427 140.434 5.2819 140.607 5.30664C140.781 5.33138 140.929 5.26953 141.053 5.12109H141.09C141.214 5.12109 141.312 5.19531 141.387 5.34375C141.684 5.19531 141.956 5.12109 142.203 5.12109C142.451 5.12109 142.574 5.14583 142.574 5.19531C142.574 5.22005 142.599 5.24479 142.648 5.26953C142.698 5.29427 142.747 5.29427 142.797 5.26953C142.846 5.24479 142.921 5.23242 143.02 5.23242C143.118 5.23242 143.255 5.33138 143.428 5.5293C143.626 5.70247 143.885 5.78906 144.207 5.78906L144.912 5.75195C145.209 5.75195 145.444 5.8138 145.617 5.9375C145.79 6.03646 145.988 6.09831 146.211 6.12305C146.26 6.14779 146.285 6.19727 146.285 6.27148C146.285 6.32096 146.31 6.37044 146.359 6.41992H146.508C146.607 6.49414 146.681 6.58073 146.73 6.67969C146.805 6.75391 146.879 6.81576 146.953 6.86523L147.324 7.08789C147.423 7.16211 147.51 7.2487 147.584 7.34766C147.658 7.42188 147.757 7.49609 147.881 7.57031C147.955 7.61979 148.017 7.69401 148.066 7.79297C148.141 7.89193 148.215 7.99089 148.289 8.08984C148.363 8.16406 148.438 8.22591 148.512 8.27539C148.586 8.32487 148.648 8.41146 148.697 8.53516C148.747 8.63411 148.771 8.73307 148.771 8.83203C148.771 8.93099 148.796 9.04232 148.846 9.16602C148.895 9.26497 148.932 9.30208 148.957 9.27734C148.982 9.2526 148.994 9.31445 148.994 9.46289C148.994 9.58659 149.019 9.73503 149.068 9.9082C149.143 10.0566 149.229 10.2298 149.328 10.4277C149.427 10.6009 149.514 10.7741 149.588 10.9473C149.662 11.1204 149.736 11.2194 149.811 11.2441V11.541ZM133.779 15.2148L133.594 17.1074C133.594 17.2806 133.606 17.429 133.631 17.5527C133.68 17.6517 133.717 17.8249 133.742 18.0723C133.767 18.2949 133.767 18.5794 133.742 18.9258C133.742 19.2474 133.767 19.6185 133.816 20.0391C133.866 20.4596 134.014 20.8802 134.262 21.3008C134.509 21.7214 134.658 22.1914 134.707 22.7109C134.905 22.9831 135.09 23.2676 135.264 23.5645C135.462 23.8613 135.66 24.1458 135.857 24.418C136.352 25.1107 136.896 25.5312 137.49 25.6797C137.762 26.1745 138.27 26.4219 139.012 26.4219C139.234 26.4219 139.358 26.4466 139.383 26.4961H139.939L141.684 26.6816C141.832 26.6816 141.968 26.6569 142.092 26.6074C142.24 26.5332 142.376 26.5085 142.5 26.5332C142.698 26.36 142.883 26.2734 143.057 26.2734C143.23 26.2487 143.44 26.1992 143.688 26.125C143.737 26.1003 143.749 26.0508 143.725 25.9766C143.725 25.8776 143.762 25.8158 143.836 25.791C143.91 25.7663 144.021 25.7539 144.17 25.7539C144.269 25.4818 144.467 25.2962 144.764 25.1973C145.061 25.0983 145.32 24.9499 145.543 24.752C145.79 24.5293 146.025 24.319 146.248 24.1211C146.471 23.9232 146.669 23.6634 146.842 23.3418C147.04 22.9954 147.201 22.7604 147.324 22.6367L147.732 22.2656C147.782 22.2161 147.807 22.1543 147.807 22.0801C147.807 21.9811 147.881 21.8945 148.029 21.8203C148.202 21.7461 148.301 21.6842 148.326 21.6348C148.376 21.5605 148.388 21.4987 148.363 21.4492C148.363 21.3997 148.388 21.3503 148.438 21.3008C148.586 21.2513 148.648 21.1771 148.623 21.0781C148.623 20.9544 148.623 20.8307 148.623 20.707C148.623 20.5586 148.66 20.4473 148.734 20.373C148.833 20.2741 148.846 20.1504 148.771 20.002C148.945 19.8783 149.044 19.7174 149.068 19.5195C149.093 19.2969 149.13 19.1113 149.18 18.9629C149.254 18.7897 149.328 18.666 149.402 18.5918C149.501 18.4928 149.576 18.3815 149.625 18.2578C149.576 18.2083 149.551 18.0599 149.551 17.8125V17.4414C149.773 17.0951 149.885 16.7734 149.885 16.4766C149.885 16.1549 149.823 15.8704 149.699 15.623C149.551 15.3014 149.477 14.8932 149.477 14.3984C149.477 13.8789 149.402 13.5573 149.254 13.4336C149.105 13.3099 149.031 13.2109 149.031 13.1367V12.877L148.883 12.0605C148.883 11.9368 148.821 11.8132 148.697 11.6895C148.598 11.5658 148.524 11.4421 148.475 11.3184C148.45 11.1947 148.45 11.071 148.475 10.9473C148.499 10.8236 148.475 10.6628 148.4 10.4648C148.326 10.2669 148.227 10.1309 148.104 10.0566C148.005 9.98242 147.955 9.77214 147.955 9.42578C147.683 9.32682 147.522 9.12891 147.473 8.83203C147.201 8.75781 147.003 8.60938 146.879 8.38672C146.755 8.13932 146.632 7.99089 146.508 7.94141C146.409 7.89193 146.347 7.87956 146.322 7.9043C146.322 7.9043 146.298 7.9043 146.248 7.9043H146.211L146.137 7.71875C145.988 7.61979 145.84 7.57031 145.691 7.57031L145.061 7.71875C144.838 7.71875 144.628 7.63216 144.43 7.45898C144.232 7.28581 144.046 7.19922 143.873 7.19922C143.7 7.19922 143.551 7.23633 143.428 7.31055C143.354 7.23633 143.304 7.16211 143.279 7.08789C143.255 6.98893 143.205 6.91471 143.131 6.86523C142.933 6.84049 142.785 6.79102 142.686 6.7168C142.587 6.64258 142.451 6.56836 142.277 6.49414L142.129 6.53125L141.387 6.38281C141.337 6.38281 141.275 6.41992 141.201 6.49414C141.152 6.54362 141.065 6.56836 140.941 6.56836C140.818 6.54362 140.706 6.54362 140.607 6.56836C140.508 6.5931 140.422 6.63021 140.348 6.67969C140.273 6.70443 140.187 6.72917 140.088 6.75391C139.989 6.77865 139.865 6.77865 139.717 6.75391C139.568 6.72917 139.432 6.74154 139.309 6.79102C139.21 6.84049 139.123 6.90234 139.049 6.97656C138.999 7.05078 138.913 7.06315 138.789 7.01367C138.641 7.06315 138.529 7.14974 138.455 7.27344C138.406 7.3724 138.121 7.42188 137.602 7.42188C137.206 8.04036 136.699 8.46094 136.08 8.68359C136.031 8.88151 135.932 9.04232 135.783 9.16602C135.635 9.26497 135.499 9.38867 135.375 9.53711C135.227 9.71029 135.041 10.069 134.818 10.6133C134.596 11.1576 134.484 11.541 134.484 11.7637L134.559 12.0605C134.559 12.2337 134.509 12.3945 134.41 12.543C134.311 12.6914 134.237 12.8398 134.188 12.9883C134.138 13.112 134.126 13.248 134.15 13.3965C134.175 13.5202 134.163 13.6562 134.113 13.8047C134.089 13.9284 134.039 14.0645 133.965 14.2129C133.792 14.5098 133.73 14.8438 133.779 15.2148Z" fill="white"/>
</svg>
