<svg width="105" height="105" viewBox="0 0 105 105" fill="none" xmlns="http://www.w3.org/2000/svg">
<path d="M80.2135 12.5218L77.7135 12.5161V12.5171L80.2135 12.5218ZM71.2805 2.5571L71.0137 5.04282L71.0137 5.04283L71.2805 2.5571ZM33.7181 2.5571L33.9848 5.04283L33.9849 5.04282L33.7181 2.5571ZM24.7852 12.5217L27.2852 12.5163V12.5163L24.7852 12.5217ZM67.5 85C68.8807 85 70 83.8807 70 82.5C70 81.1193 68.8807 80 67.5 80V85ZM37.5 80C36.1193 80 35 81.1193 35 82.5C35 83.8807 36.1193 85 37.5 85V80ZM100.943 76.814C101.136 75.4468 100.184 74.1823 98.8165 73.9895C97.4494 73.7967 96.1848 74.7488 95.992 76.116L100.943 76.814ZM91.3585 98.786L92.9528 100.712L92.9529 100.712L91.3585 98.786ZM13.6417 98.786L12.0473 100.712L12.0474 100.712L13.6417 98.786ZM6.5324 76.465L9.00792 76.116L6.5324 76.465ZM4.41755 61.465L1.94204 61.814L1.94204 61.814L4.41755 61.465ZM5.8116 32.6192L7.64612 34.3175L7.64613 34.3175L5.8116 32.6192ZM99.1885 32.6192L101.023 30.9208L101.023 30.9207L99.1885 32.6192ZM99.3144 52.1972C99.1472 53.5677 100.123 54.8144 101.493 54.9816C102.864 55.1488 104.11 54.1734 104.278 52.8028L99.3144 52.1972ZM92.771 27.9316C94.1827 19.8776 87.9846 12.5 79.8085 12.5V17.5C84.8784 17.5 88.7213 22.0747 87.8461 27.0684L92.771 27.9316ZM79.8085 12.5H25.1894V17.5H79.8085V12.5ZM25.1894 12.5C17.0129 12.5 10.8156 19.8777 12.2267 27.9315L17.1517 27.0685C16.2767 22.0746 20.1194 17.5 25.1894 17.5V12.5ZM82.4846 15.2724C82.6192 14.0442 82.7122 13.2301 82.7135 12.5264L77.7135 12.5171C77.7128 12.8834 77.6637 13.365 77.5144 14.7276L82.4846 15.2724ZM82.7135 12.5274C82.7278 6.12939 77.9083 0.753979 71.5472 0.0713711L71.0137 5.04283C74.8307 5.45242 77.7221 8.67781 77.7135 12.5161L82.7135 12.5274ZM71.5473 0.0713768C70.8482 -0.00365543 70.0296 0 68.794 0V5C70.1643 5 70.6488 5.00366 71.0137 5.04282L71.5473 0.0713768ZM68.794 0H36.2049V5H68.794V0ZM36.2049 0C34.9691 0 34.1504 -0.00365567 33.4513 0.0713768L33.9849 5.04282C34.3498 5.00366 34.8344 5 36.2049 5V0ZM33.4513 0.0713718C27.0902 0.753998 22.2712 6.12951 22.2852 12.5271L27.2852 12.5163C27.2768 8.67769 30.1682 5.4524 33.9848 5.04283L33.4513 0.0713718ZM22.2852 12.5271C22.2867 13.2302 22.3795 14.0437 22.514 15.2721L27.4843 14.7279C27.3351 13.3653 27.286 12.8833 27.2852 12.5163L22.2852 12.5271ZM67.5 80H37.5V85H67.5V80ZM95.992 76.116C95.1079 82.3863 94.4744 86.843 93.5319 90.2104C92.6119 93.4974 91.4741 95.4445 89.7641 96.8604L92.9529 100.712C95.7289 98.413 97.2711 95.4019 98.3469 91.5581C99.4001 87.7948 100.078 82.9482 100.943 76.814L95.992 76.116ZM89.7642 96.8603C88.0382 98.2893 85.7995 99.1184 82.173 99.5536C78.4875 99.9958 73.7015 100 67.023 100V105C73.5775 105 78.7162 105.004 82.7687 104.518C86.8802 104.025 90.1928 102.997 92.9528 100.712L89.7642 96.8603ZM67.023 100H37.9768V105H67.023V100ZM37.9768 100C31.2984 100 26.5125 99.9958 22.8271 99.5536C19.2006 99.1184 16.962 98.2893 15.236 96.8603L12.0474 100.712C14.8074 102.997 18.1199 104.025 22.2314 104.518C26.2838 105.004 31.4225 105 37.9768 105V100ZM15.2361 96.8604C13.5261 95.4445 12.3882 93.4973 11.4681 90.2104C10.5256 86.843 9.89196 82.3862 9.00792 76.116L4.05688 76.814C4.92174 82.9482 5.59981 87.7948 6.65319 91.5581C7.7291 95.4019 9.27134 98.413 12.0473 100.712L15.2361 96.8604ZM9.00792 76.116L6.89307 61.116L1.94204 61.814L4.05688 76.814L9.00792 76.116ZM6.89307 61.116C5.76685 53.128 4.96785 47.414 5.00098 43.049C5.03345 38.7712 5.87004 36.236 7.64612 34.3175L3.97708 30.9208C1.01392 34.1214 0.0384018 38.1001 0.00112391 43.011C-0.0354917 47.8347 0.838102 53.984 1.94204 61.814L6.89307 61.116ZM7.64613 34.3175C9.44567 32.3737 12.062 31.2238 16.6158 30.6181C21.2233 30.0052 27.3536 30 35.862 30V25C27.4963 25 20.971 24.9948 15.9566 25.6617C10.8886 26.3358 6.91678 27.7454 3.97707 30.9208L7.64613 34.3175ZM35.862 30H69.138V25H35.862V30ZM69.138 30C77.6464 30 83.7766 30.0052 88.3841 30.6181C92.9379 31.2238 95.5543 32.3737 97.354 34.3176L101.023 30.9207C98.0832 27.7454 94.1113 26.3358 89.0433 25.6617C84.0289 24.9948 77.5036 25 69.138 25V30ZM97.3539 34.3175C100.199 37.3908 100.564 41.9532 99.3144 52.1972L104.278 52.8028C105.481 42.9447 105.666 35.936 101.023 30.9208L97.3539 34.3175Z" fill="white"/>
</svg>
