<svg width="30" height="23" viewBox="0 0 30 23" fill="none" xmlns="http://www.w3.org/2000/svg">
<path d="M22.9997 22.1965C26.8659 22.1965 30 19.0615 30 15.194C30 11.3278 26.8659 8.19278 22.9997 8.19278C22.9997 8.19278 23.0336 5.59168 25.1467 1.84801C25.3814 1.09789 24.963 0.299086 24.2124 0.0657068C23.6798 -0.101813 23.1195 0.0610196 22.7576 0.440063C17.8987 5.75452 15.9967 12.0093 15.9967 15.194C15.9967 19.0615 19.1308 22.1965 22.9997 22.1965Z" fill="#50DCAA"/>
<path d="M7.00301 22.1965C10.8692 22.1965 14.0033 19.0614 14.0033 15.194C14.0033 11.3278 10.8692 8.19278 7.00301 8.19278C7.00301 8.19278 7.03688 5.59168 9.15 1.84801C9.38473 1.09789 8.96625 0.299085 8.21572 0.0657058C7.68317 -0.101814 7.12277 0.0610186 6.76096 0.440062C1.90201 5.75451 2.78414e-07 12.0093 0 15.194C-3.38111e-07 19.0615 3.13412 22.1965 7.00301 22.1965Z" fill="#50DCAA"/>
</svg>
