<svg width="100" height="100" viewBox="0 0 100 100" fill="none" xmlns="http://www.w3.org/2000/svg">
<path d="M90.9899 21.4827C90.4669 20.808 89.7049 20.3598 88.861 20.2306C88.0172 20.1014 87.156 20.301 86.455 20.7882C85.7541 21.2755 85.2669 22.0132 85.094 22.8492C84.9211 23.6851 85.0757 24.5556 85.5258 25.2809C89.409 30.8601 91.9245 37.275 92.8688 44.0067C93.8131 50.7384 93.1598 57.5978 90.9616 64.0301C88.7634 70.4624 85.0821 76.2871 80.2154 81.0329C75.3488 85.7787 69.4335 89.3124 62.9479 91.3482C56.4624 93.3841 49.5887 93.8648 42.8829 92.7516C36.1771 91.6383 29.8275 88.9624 24.3476 84.9402C18.8677 80.918 14.4115 75.6625 11.3393 69.5988C8.2672 63.535 6.66539 56.8333 6.6635 50.0358C6.70548 40.7159 9.7342 31.6551 15.305 24.1833C20.8758 16.7116 28.6953 11.2226 37.6154 8.52225C38.0354 8.39755 38.4268 8.19135 38.7671 7.9154C39.1074 7.63946 39.3901 7.29919 39.5989 6.91401C39.8078 6.52883 39.9387 6.10629 39.9842 5.67051C40.0298 5.23474 39.989 4.79426 39.8643 4.37423C39.7396 3.9542 39.5334 3.56285 39.2575 3.22251C38.9815 2.88217 38.6413 2.59952 38.2561 2.39069C37.8709 2.18185 37.4484 2.05093 37.0126 2.0054C36.5768 1.95986 36.1363 2.00061 35.7163 2.1253C26.8328 4.77002 18.8597 9.83312 12.6883 16.7487C6.51695 23.6643 2.39037 32.1599 0.769805 41.286C-0.85076 50.4121 0.0985529 59.8091 3.51164 68.4267C6.92473 77.0442 12.6671 84.5428 20.097 90.0844C27.5268 95.626 36.3514 98.9921 45.5844 99.8066C54.8174 100.621 64.095 98.852 72.3803 94.6968C80.6656 90.5416 87.6321 84.1641 92.5012 76.2772C97.3703 68.3902 99.9501 59.3046 99.9523 50.0358C99.9709 39.8231 96.8414 29.8529 90.9899 21.4827Z" fill="white"/>
<path d="M62.3369 8.52218C67.531 10.0982 72.3805 12.6416 76.6301 16.0186C76.9735 16.2899 77.3671 16.4908 77.7882 16.61C78.2093 16.7292 78.6498 16.7643 79.0845 16.7132C79.5191 16.6622 79.9395 16.526 80.3216 16.3125C80.7036 16.099 81.0399 15.8123 81.3112 15.4689C81.5824 15.1254 81.7834 14.7319 81.9026 14.3107C82.0218 13.8896 82.0568 13.4491 82.0058 13.0145C81.9547 12.5798 81.8186 12.1594 81.6051 11.7773C81.3916 11.3953 81.1049 11.059 80.7614 10.7878C75.8101 6.86685 70.1561 3.92676 64.1027 2.12523C63.2544 1.8734 62.3408 1.96886 61.5629 2.39061C60.785 2.81237 60.2065 3.52587 59.9547 4.37416C59.7029 5.22245 59.7983 6.13603 60.2201 6.91393C60.6418 7.69184 61.3553 8.27034 62.2036 8.52218H62.3369ZM47.6106 5.75683C47.9344 6.05113 48.3063 6.28777 48.7101 6.4565C49.1089 6.63276 49.5401 6.72381 49.9761 6.72381C50.4122 6.72381 50.8434 6.63276 51.2422 6.4565C51.6456 6.28719 52.0174 6.05061 52.3417 5.75683C52.6504 5.44551 52.8948 5.0763 53.0606 4.67037C53.2264 4.26444 53.3104 3.82977 53.3079 3.39129C53.2956 2.50916 52.9505 1.66423 52.3417 1.02576C51.957 0.624603 51.4781 0.326054 50.9485 0.157298C50.419 -0.0114586 49.8556 -0.0450608 49.3098 0.0595512C49.1012 0.096494 48.8991 0.163846 48.7101 0.259456C48.4974 0.331632 48.2957 0.432517 48.1103 0.559312L47.6106 0.959122C47.3073 1.27598 47.0695 1.64962 46.9109 2.0586C46.7314 2.4798 46.6407 2.93347 46.6444 3.39129C46.6496 3.82668 46.7402 4.25681 46.9109 4.65736C47.0802 5.06081 47.3168 5.43259 47.6106 5.75683ZM20.6235 45.4379C20.2669 45.791 19.9838 46.2114 19.7906 46.6746C19.5974 47.1378 19.498 47.6347 19.498 48.1366C19.498 48.6385 19.5974 49.1354 19.7906 49.5986C19.9838 50.0618 20.2669 50.4821 20.6235 50.8353L39.681 70.0261C40.0342 70.3827 40.4545 70.6658 40.9177 70.859C41.381 71.0522 41.8779 71.1517 42.3798 71.1517C42.8816 71.1517 43.3785 71.0522 43.8418 70.859C44.305 70.6658 44.7253 70.3827 45.0785 70.0261L79.3288 35.6092C80.0666 34.8935 80.4899 33.914 80.5055 32.8861C80.5211 31.8583 80.1278 30.8664 79.4121 30.1285C78.6963 29.3907 77.7168 28.9674 76.689 28.9518C75.6611 28.9362 74.6692 29.3295 73.9314 30.0452L42.3464 61.6301L26.0209 45.4379C25.3032 44.7258 24.3332 44.3262 23.3222 44.3262C22.3112 44.3262 21.3411 44.7258 20.6235 45.4379Z" fill="white"/>
</svg>
